<svg width="100" height="100" viewBox="0 0 100 100" fill="none" xmlns="http://www.w3.org/2000/svg">
<path d="M60.9992 9.80005H9.39922C7.63191 9.80005 6.19922 11.2327 6.19922 13V28.6C6.19922 30.3674 7.63191 31.8 9.39922 31.8H60.9992C62.7665 31.8 64.1992 30.3674 64.1992 28.6V13C64.1992 11.2327 62.7665 9.80005 60.9992 9.80005Z" fill="#142E34"/>
<path d="M60.9992 66.6001H9.39922C7.63191 66.6001 6.19922 68.0328 6.19922 69.8001V85.4001C6.19922 87.1674 7.63191 88.6001 9.39922 88.6001H60.9992C62.7665 88.6001 64.1992 87.1674 64.1992 85.4001V69.8001C64.1992 68.0328 62.7665 66.6001 60.9992 66.6001Z" fill="#142E34"/>
<path d="M89.9992 38.2H38.3992C36.6319 38.2 35.1992 39.6326 35.1992 41.4V57C35.1992 58.7673 36.6319 60.2 38.3992 60.2H89.9992C91.7665 60.2 93.1992 58.7673 93.1992 57V41.4C93.1992 39.6326 91.7665 38.2 89.9992 38.2Z" fill="#142E34"/>
<path d="M82.1992 31.8C88.2744 31.8 93.1992 26.8752 93.1992 20.8C93.1992 14.7249 88.2744 9.80005 82.1992 9.80005C76.1241 9.80005 71.1992 14.7249 71.1992 20.8C71.1992 26.8752 76.1241 31.8 82.1992 31.8Z" fill="#142E34"/>
<path d="M82.1992 88.6001C88.2744 88.6001 93.1992 83.6752 93.1992 77.6001C93.1992 71.525 88.2744 66.6001 82.1992 66.6001C76.1241 66.6001 71.1992 71.525 71.1992 77.6001C71.1992 83.6752 76.1241 88.6001 82.1992 88.6001Z" fill="#142E34"/>
<path d="M17.1992 60.2C23.2744 60.2 28.1992 55.2751 28.1992 49.2C28.1992 43.1248 23.2744 38.2 17.1992 38.2C11.1241 38.2 6.19922 43.1248 6.19922 49.2C6.19922 55.2751 11.1241 60.2 17.1992 60.2Z" fill="#142E34"/>
</svg>
