<svg width="517" height="115" viewBox="0 0 517 115" fill="none" xmlns="http://www.w3.org/2000/svg">
<path d="M155.193 55.4444H123.592V45.3598H155.193V55.4444ZM159.696 78H123.592C122.206 78 120.692 77.7562 119.05 77.2687C117.408 76.7811 115.881 75.9856 114.47 74.8822C113.084 73.7532 111.916 72.3034 110.967 70.5328C110.043 68.7365 109.581 66.5426 109.581 63.9508V27.8464C109.581 27.1536 109.709 26.4992 109.966 25.8834C110.223 25.2675 110.569 24.7287 111.005 24.2668C111.467 23.8049 112.006 23.4456 112.622 23.189C113.238 22.9324 113.905 22.8041 114.623 22.8041H159.696V32.8117H119.589V63.9508C119.589 65.2595 119.935 66.2603 120.628 66.9531C121.321 67.646 122.334 67.9924 123.669 67.9924H159.696V78ZM224.476 54.9055C224.476 58.267 223.886 61.3591 222.706 64.1818C221.551 67.0044 219.947 69.4422 217.894 71.495C215.842 73.5222 213.404 75.1132 210.581 76.2679C207.759 77.4226 204.692 78 201.382 78H174.361C173.643 78 172.976 77.8717 172.36 77.6151C171.744 77.3585 171.205 77.0121 170.743 76.5758C170.307 76.1139 169.96 75.5751 169.704 74.9592C169.447 74.3434 169.319 73.6762 169.319 72.9577V27.8464C169.319 27.1536 169.447 26.4992 169.704 25.8834C169.96 25.2675 170.307 24.7287 170.743 24.2668C171.205 23.8049 171.744 23.4456 172.36 23.189C172.976 22.9324 173.643 22.8041 174.361 22.8041H201.382C204.692 22.8041 207.759 23.3815 210.581 24.5362C213.404 25.6909 215.842 27.2947 217.894 29.3476C219.947 31.3747 221.551 33.8125 222.706 36.6608C223.886 39.4835 224.476 42.5628 224.476 45.8986V54.9055ZM214.469 45.8986C214.469 43.9484 214.148 42.165 213.506 40.5484C212.891 38.9318 212.005 37.5589 210.851 36.4299C209.696 35.2752 208.31 34.3899 206.694 33.774C205.103 33.1325 203.332 32.8117 201.382 32.8117H179.327V67.9924H201.382C203.332 67.9924 205.103 67.6845 206.694 67.0686C208.31 66.4271 209.696 65.5418 210.851 64.4127C212.005 63.258 212.891 61.8852 213.506 60.2942C214.148 58.6776 214.469 56.8814 214.469 54.9055V45.8986ZM288.371 72.9577C288.371 73.6762 288.243 74.3434 287.986 74.9592C287.73 75.5751 287.37 76.1139 286.909 76.5758C286.447 77.0121 285.908 77.3585 285.292 77.6151C284.676 77.8717 284.022 78 283.329 78H260.773C258.643 78 256.488 77.7691 254.307 77.3072C252.126 76.8453 250.009 76.1396 247.956 75.1902C245.929 74.2151 244.017 72.9834 242.221 71.495C240.424 70.0067 238.846 68.249 237.486 66.2218C236.152 64.169 235.1 61.8338 234.33 59.2165C233.56 56.5734 233.175 53.6353 233.175 50.4021V22.8041H243.183V50.4021C243.183 53.2247 243.568 55.6112 244.338 57.5614C245.133 59.5116 246.134 61.141 247.34 62.4497C248.546 63.7584 249.868 64.7848 251.304 65.529C252.741 66.2731 254.101 66.8248 255.385 67.1841C256.693 67.5433 257.835 67.7743 258.81 67.8769C259.811 67.9539 260.465 67.9924 260.773 67.9924H278.364V22.8041H288.371V72.9577ZM354.191 78H344.183V64.4512H309.002V78H298.995V50.4021C298.995 46.3733 299.688 42.6654 301.073 39.2782C302.459 35.891 304.383 32.9785 306.847 30.5408C309.31 28.103 312.223 26.2041 315.584 24.8441C318.946 23.4841 322.615 22.8041 326.593 22.8041H349.148C349.841 22.8041 350.495 22.9324 351.111 23.189C351.727 23.4456 352.266 23.8049 352.728 24.2668C353.19 24.7287 353.549 25.2675 353.806 25.8834C354.062 26.4992 354.191 27.1536 354.191 27.8464V78ZM309.002 54.4436H344.183V32.8117H326.593C326.285 32.8117 325.63 32.8631 324.63 32.9657C323.654 33.0427 322.513 33.2608 321.204 33.62C319.921 33.9793 318.561 34.531 317.124 35.2752C315.687 36.0193 314.365 37.0457 313.159 38.3544C311.953 39.6631 310.952 41.3054 310.157 43.2812C309.387 45.2315 309.002 47.6051 309.002 50.4021V54.4436ZM375.938 78H365.93V22.8041H375.938V78ZM445.568 55.6753C445.568 59.0368 444.99 62.1289 443.836 64.9516C442.681 67.7743 441.077 70.212 439.024 72.2649C436.972 74.3177 434.534 75.9215 431.711 77.0762C428.914 78.2053 425.861 78.7698 422.55 78.7698H409.002C405.691 78.7698 402.625 78.2053 399.802 77.0762C396.98 75.9215 394.542 74.3177 392.489 72.2649C390.436 70.212 388.819 67.7743 387.639 64.9516C386.484 62.1289 385.907 59.0368 385.907 55.6753V45.1288C385.907 41.7929 386.484 38.7137 387.639 35.891C388.819 33.0427 390.436 30.6049 392.489 28.5777C394.542 26.5249 396.98 24.9211 399.802 23.7664C402.625 22.6117 405.691 22.0343 409.002 22.0343H422.55C425.861 22.0343 428.914 22.6117 431.711 23.7664C434.534 24.9211 436.972 26.5249 439.024 28.5777C441.077 30.6049 442.681 33.0427 443.836 35.891C444.99 38.7137 445.568 41.7929 445.568 45.1288V55.6753ZM435.56 45.1288C435.56 43.1529 435.239 41.3695 434.598 39.7786C433.982 38.162 433.097 36.7891 431.942 35.6601C430.813 34.5053 429.44 33.62 427.824 33.0042C426.233 32.3627 424.475 32.0419 422.55 32.0419H409.002C407.051 32.0419 405.268 32.3627 403.651 33.0042C402.06 33.62 400.687 34.5053 399.533 35.6601C398.378 36.7891 397.48 38.162 396.838 39.7786C396.223 41.3695 395.915 43.1529 395.915 45.1288V55.6753C395.915 57.6512 396.223 59.4474 396.838 61.064C397.48 62.655 398.378 64.0278 399.533 65.1825C400.687 66.3116 402.06 67.1969 403.651 67.8384C405.268 68.4543 407.051 68.7622 409.002 68.7622H422.473C424.424 68.7622 426.194 68.4543 427.785 67.8384C429.402 67.1969 430.787 66.3116 431.942 65.1825C433.097 64.0278 433.982 62.655 434.598 61.064C435.239 59.4474 435.56 57.6512 435.56 55.6753V45.1288ZM510.617 73.7275C510.617 74.446 510.476 75.1132 510.194 75.729C509.937 76.3449 509.578 76.8838 509.116 77.3457C508.68 77.7819 508.154 78.1283 507.538 78.3849C506.922 78.6415 506.268 78.7698 505.575 78.7698C504.959 78.7698 504.331 78.6543 503.689 78.4234C503.073 78.1925 502.521 77.8204 502.034 77.3072L465.468 39.1242V78H455.46V27.0766C455.46 26.0502 455.742 25.1264 456.307 24.3053C456.897 23.4585 457.641 22.8298 458.539 22.4192C459.489 22.0343 460.464 21.9445 461.465 22.1498C462.465 22.3294 463.325 22.7913 464.043 23.5354L500.61 61.6799V22.8041H510.617V73.7275Z" fill="#142E34"/>
<path d="M114.72 110V95.6H116.36V110H114.72ZM115.56 110V108.56H124.36V110H115.56ZM115.56 103.22V101.78H123.64V103.22H115.56ZM115.56 97.04V95.6H124.2V97.04H115.56ZM127.474 110V95.6H129.174L137.434 107.72L137.194 107.76V95.6H138.754V110H137.054L128.794 97.88L129.034 97.84V110H127.474ZM148.68 110.2C147.214 110.2 145.94 109.9 144.86 109.3C143.78 108.7 142.947 107.86 142.36 106.78C141.774 105.687 141.48 104.4 141.48 102.92C141.48 101.44 141.767 100.14 142.34 99.02C142.927 97.8867 143.734 97 144.76 96.36C145.8 95.72 146.994 95.4 148.34 95.4C149.394 95.4 150.347 95.6 151.2 96C152.067 96.4 152.774 96.9533 153.32 97.66C153.88 98.3667 154.22 99.1867 154.34 100.12H152.7C152.567 99.1333 152.107 98.3467 151.32 97.76C150.547 97.1733 149.574 96.88 148.4 96.88C147.347 96.88 146.427 97.1333 145.64 97.64C144.854 98.1333 144.24 98.8267 143.8 99.72C143.374 100.613 143.16 101.667 143.16 102.88C143.16 104.093 143.38 105.14 143.82 106.02C144.274 106.887 144.92 107.553 145.76 108.02C146.614 108.487 147.634 108.72 148.82 108.72C149.634 108.72 150.36 108.607 151 108.38C151.64 108.14 152.22 107.773 152.74 107.28L154.38 107.88C153.647 108.653 152.8 109.233 151.84 109.62C150.894 110.007 149.84 110.2 148.68 110.2ZM152.74 107.88V103.22L153.36 103.84H148.8V102.4H154.38V107.88H152.74ZM157.493 110V95.6H159.133V110H157.493ZM158.333 110V108.56H166.533V110H158.333ZM169.251 110V95.6H170.891V110H169.251ZM179.209 110.18C177.529 110.18 176.189 109.767 175.189 108.94C174.203 108.113 173.623 106.933 173.449 105.4H175.049C175.196 106.507 175.616 107.34 176.309 107.9C177.003 108.46 177.963 108.74 179.189 108.74C180.229 108.74 181.009 108.547 181.529 108.16C182.063 107.76 182.329 107.18 182.329 106.42C182.329 105.767 182.149 105.247 181.789 104.86C181.429 104.473 180.869 104.153 180.109 103.9L177.689 103.06C176.463 102.633 175.556 102.12 174.969 101.52C174.383 100.907 174.089 100.133 174.089 99.2C174.089 98.4267 174.283 97.76 174.669 97.2C175.056 96.6267 175.603 96.18 176.309 95.86C177.016 95.54 177.836 95.38 178.769 95.38C180.209 95.38 181.363 95.76 182.229 96.52C183.096 97.2667 183.596 98.3333 183.729 99.72H182.129C181.956 98.72 181.596 97.9867 181.049 97.52C180.516 97.0533 179.743 96.82 178.729 96.82C177.769 96.82 177.023 97.0133 176.489 97.4C175.956 97.7867 175.689 98.3333 175.689 99.04C175.689 99.64 175.876 100.12 176.249 100.48C176.623 100.84 177.203 101.153 177.989 101.42L180.569 102.32C181.689 102.707 182.529 103.233 183.089 103.9C183.649 104.553 183.929 105.387 183.929 106.4C183.929 107.6 183.516 108.533 182.689 109.2C181.876 109.853 180.716 110.18 179.209 110.18ZM186.497 110V95.6H188.137V110H186.497ZM196.137 110V95.6H197.777V110H196.137ZM187.337 101.78H196.857V103.22H187.337V101.78ZM205.228 110V95.6H207.748L212.948 109.48H212.188L217.348 95.6H219.908V110H218.288V96.46H218.508L213.488 110H211.528L206.508 96.58H206.728V110H205.228ZM222.353 110L227.913 95.6H229.353L223.933 110H222.353ZM233.793 110L228.373 95.6H229.913L235.473 110H233.793ZM225.113 104.18H232.633V105.62H225.113V104.18ZM238.884 110V108.56H242.744C243.944 108.56 244.977 108.32 245.844 107.84C246.71 107.347 247.377 106.66 247.844 105.78C248.31 104.9 248.544 103.88 248.544 102.72C248.544 101.573 248.31 100.573 247.844 99.72C247.377 98.8667 246.71 98.2067 245.844 97.74C244.99 97.2733 243.957 97.04 242.744 97.04H238.884V95.6H242.744C244.25 95.6 245.564 95.9 246.684 96.5C247.804 97.0867 248.67 97.92 249.284 99C249.91 100.067 250.224 101.32 250.224 102.76C250.224 104.2 249.91 105.467 249.284 106.56C248.657 107.64 247.784 108.487 246.664 109.1C245.557 109.7 244.257 110 242.764 110H238.884ZM237.904 110V95.6H239.544V110H237.904ZM252.943 110V95.6H254.583V110H252.943ZM253.783 110V108.56H262.583V110H253.783ZM253.783 103.22V101.78H261.863V103.22H253.783ZM253.783 97.04V95.6H262.423V97.04H253.783ZM269.7 110V95.6H271.34V110H269.7ZM270.54 110V108.56H279.34V110H270.54ZM270.54 103.22V101.78H278.62V103.22H270.54ZM270.54 97.04V95.6H279.18V97.04H270.54ZM280.966 110L286.526 95.6H287.966L282.546 110H280.966ZM292.406 110L286.986 95.6H288.526L294.086 110H292.406ZM283.726 104.18H291.246V105.62H283.726V104.18ZM300.83 110.18C299.15 110.18 297.81 109.767 296.81 108.94C295.824 108.113 295.244 106.933 295.07 105.4H296.67C296.817 106.507 297.237 107.34 297.93 107.9C298.624 108.46 299.584 108.74 300.81 108.74C301.85 108.74 302.63 108.547 303.15 108.16C303.684 107.76 303.95 107.18 303.95 106.42C303.95 105.767 303.77 105.247 303.41 104.86C303.05 104.473 302.49 104.153 301.73 103.9L299.31 103.06C298.084 102.633 297.177 102.12 296.59 101.52C296.004 100.907 295.71 100.133 295.71 99.2C295.71 98.4267 295.904 97.76 296.29 97.2C296.677 96.6267 297.224 96.18 297.93 95.86C298.637 95.54 299.457 95.38 300.39 95.38C301.83 95.38 302.984 95.76 303.85 96.52C304.717 97.2667 305.217 98.3333 305.35 99.72H303.75C303.577 98.72 303.217 97.9867 302.67 97.52C302.137 97.0533 301.364 96.82 300.35 96.82C299.39 96.82 298.644 97.0133 298.11 97.4C297.577 97.7867 297.31 98.3333 297.31 99.04C297.31 99.64 297.497 100.12 297.87 100.48C298.244 100.84 298.824 101.153 299.61 101.42L302.19 102.32C303.31 102.707 304.15 103.233 304.71 103.9C305.27 104.553 305.55 105.387 305.55 106.4C305.55 107.6 305.137 108.533 304.31 109.2C303.497 109.853 302.337 110.18 300.83 110.18ZM311.577 110V103.48L306.117 95.6H308.117L312.857 102.52H312.097L316.837 95.6H318.677L313.217 103.48V110H311.577ZM318.153 112.88V112.06C318.54 111.913 318.82 111.68 318.993 111.36C319.167 111.053 319.253 110.58 319.253 109.94L319.873 110H318.153V107.96H320.173V109.58C320.173 110.433 320.013 111.14 319.693 111.7C319.373 112.26 318.86 112.653 318.153 112.88ZM332.315 110.18C330.635 110.18 329.295 109.767 328.295 108.94C327.308 108.113 326.728 106.933 326.555 105.4H328.155C328.302 106.507 328.722 107.34 329.415 107.9C330.108 108.46 331.068 108.74 332.295 108.74C333.335 108.74 334.115 108.547 334.635 108.16C335.168 107.76 335.435 107.18 335.435 106.42C335.435 105.767 335.255 105.247 334.895 104.86C334.535 104.473 333.975 104.153 333.215 103.9L330.795 103.06C329.568 102.633 328.662 102.12 328.075 101.52C327.488 100.907 327.195 100.133 327.195 99.2C327.195 98.4267 327.388 97.76 327.775 97.2C328.162 96.6267 328.708 96.18 329.415 95.86C330.122 95.54 330.942 95.38 331.875 95.38C333.315 95.38 334.468 95.76 335.335 96.52C336.202 97.2667 336.702 98.3333 336.835 99.72H335.235C335.062 98.72 334.702 97.9867 334.155 97.52C333.622 97.0533 332.848 96.82 331.835 96.82C330.875 96.82 330.128 97.0133 329.595 97.4C329.062 97.7867 328.795 98.3333 328.795 99.04C328.795 99.64 328.982 100.12 329.355 100.48C329.728 100.84 330.308 101.153 331.095 101.42L333.675 102.32C334.795 102.707 335.635 103.233 336.195 103.9C336.755 104.553 337.035 105.387 337.035 106.4C337.035 107.6 336.622 108.533 335.795 109.2C334.982 109.853 333.822 110.18 332.315 110.18ZM339.603 110V95.6H342.123L347.323 109.48H346.563L351.723 95.6H354.283V110H352.663V96.46H352.883L347.863 110H345.903L340.883 96.58H341.103V110H339.603ZM356.728 110L362.288 95.6H363.728L358.308 110H356.728ZM368.168 110L362.748 95.6H364.288L369.848 110H368.168ZM359.488 104.18H367.008V105.62H359.488V104.18ZM371.888 110V95.6H377.208C378.235 95.6 379.108 95.7667 379.828 96.1C380.548 96.4333 381.095 96.9 381.468 97.5C381.855 98.0867 382.048 98.7867 382.048 99.6C382.048 100.413 381.855 101.127 381.468 101.74C381.095 102.34 380.548 102.813 379.828 103.16C379.108 103.493 378.235 103.66 377.208 103.66H373.088V102.22H377.148C378.215 102.22 379.021 101.987 379.568 101.52C380.128 101.053 380.408 100.413 380.408 99.6C380.408 98.8 380.135 98.1733 379.588 97.72C379.041 97.2667 378.228 97.04 377.148 97.04H373.528V110H371.888ZM380.328 110L372.668 102.86H374.908L382.808 110H380.328ZM388.23 110V97.04H383.29V95.6H394.81V97.04H389.87V110H388.23ZM397.259 110V95.6H398.899V110H397.259ZM398.099 110V108.56H406.899V110H398.099ZM398.099 103.22V101.78H406.179V103.22H398.099ZM398.099 97.04V95.6H406.739V97.04H398.099ZM409.368 110V95.6H414.688C415.715 95.6 416.588 95.7667 417.308 96.1C418.028 96.4333 418.575 96.9 418.948 97.5C419.335 98.0867 419.528 98.7867 419.528 99.6C419.528 100.413 419.335 101.127 418.948 101.74C418.575 102.34 418.028 102.813 417.308 103.16C416.588 103.493 415.715 103.66 414.688 103.66H410.568V102.22H414.628C415.695 102.22 416.502 101.987 417.048 101.52C417.608 101.053 417.888 100.413 417.888 99.6C417.888 98.8 417.615 98.1733 417.068 97.72C416.522 97.2667 415.708 97.04 414.628 97.04H411.008V110H409.368ZM417.808 110L410.148 102.86H412.388L420.288 110H417.808ZM430.037 110L425.777 95.6H427.457L431.277 108.9H430.977L434.717 95.6H436.717L440.477 108.9H440.177L443.977 95.6H445.557L441.297 110H439.297L435.557 97.1H435.797L432.037 110H430.037ZM448.275 110V95.6H449.915V110H448.275ZM457.293 110V97.04H452.353V95.6H463.873V97.04H458.933V110H457.293ZM466.322 110V95.6H467.962V110H466.322ZM475.962 110V95.6H477.602V110H475.962ZM467.162 101.78H476.682V103.22H467.162V101.78ZM484.052 110L489.612 95.6H491.052L485.632 110H484.052ZM495.492 110L490.072 95.6H491.612L497.172 110H495.492ZM486.812 104.18H494.332V105.62H486.812V104.18ZM499.603 110V95.6H501.243V110H499.603Z" fill="black"/>
<path d="M60.9992 24.7998H9.39922C7.63191 24.7998 6.19922 26.2325 6.19922 27.9998V43.5998C6.19922 45.3671 7.63191 46.7998 9.39922 46.7998H60.9992C62.7665 46.7998 64.1992 45.3671 64.1992 43.5998V27.9998C64.1992 26.2325 62.7665 24.7998 60.9992 24.7998Z" fill="#142E34"/>
<path d="M60.9992 81.6001H9.39922C7.63191 81.6001 6.19922 83.0328 6.19922 84.8001V100.4C6.19922 102.167 7.63191 103.6 9.39922 103.6H60.9992C62.7665 103.6 64.1992 102.167 64.1992 100.4V84.8001C64.1992 83.0328 62.7665 81.6001 60.9992 81.6001Z" fill="#142E34"/>
<path d="M89.9992 53.2002H38.3992C36.6319 53.2002 35.1992 54.6329 35.1992 56.4002V72.0002C35.1992 73.7675 36.6319 75.2002 38.3992 75.2002H89.9992C91.7665 75.2002 93.1992 73.7675 93.1992 72.0002V56.4002C93.1992 54.6329 91.7665 53.2002 89.9992 53.2002Z" fill="#142E34"/>
<path d="M82.1992 46.7998C88.2744 46.7998 93.1992 41.8749 93.1992 35.7998C93.1992 29.7247 88.2744 24.7998 82.1992 24.7998C76.1241 24.7998 71.1992 29.7247 71.1992 35.7998C71.1992 41.8749 76.1241 46.7998 82.1992 46.7998Z" fill="#142E34"/>
<path d="M82.1992 103.6C88.2744 103.6 93.1992 98.6752 93.1992 92.6001C93.1992 86.525 88.2744 81.6001 82.1992 81.6001C76.1241 81.6001 71.1992 86.525 71.1992 92.6001C71.1992 98.6752 76.1241 103.6 82.1992 103.6Z" fill="#142E34"/>
<path d="M17.1992 75.2002C23.2744 75.2002 28.1992 70.2753 28.1992 64.2002C28.1992 58.1251 23.2744 53.2002 17.1992 53.2002C11.1241 53.2002 6.19922 58.1251 6.19922 64.2002C6.19922 70.2753 11.1241 75.2002 17.1992 75.2002Z" fill="#142E34"/>
</svg>
