<svg width="293" height="60" viewBox="0 0 293 60" fill="none" xmlns="http://www.w3.org/2000/svg">
<path d="M93.9766 28.5547H77.9414V23.4375H93.9766V28.5547ZM96.2617 40H77.9414C77.2383 40 76.4701 39.8763 75.6367 39.6289C74.8034 39.3815 74.0286 38.9779 73.3125 38.418C72.6094 37.8451 72.0169 37.1094 71.5352 36.2109C71.0664 35.2995 70.832 34.1862 70.832 32.8711V14.5508C70.832 14.1992 70.8971 13.8672 71.0273 13.5547C71.1576 13.2422 71.3333 12.9688 71.5547 12.7344C71.7891 12.5 72.0625 12.3177 72.375 12.1875C72.6875 12.0573 73.026 11.9922 73.3906 11.9922H96.2617V17.0703H75.9102V32.8711C75.9102 33.5352 76.0859 34.043 76.4375 34.3945C76.7891 34.7461 77.3034 34.9219 77.9805 34.9219H96.2617V40ZM129.133 28.2812C129.133 29.987 128.833 31.556 128.234 32.9883C127.648 34.4206 126.835 35.6576 125.793 36.6992C124.751 37.7279 123.514 38.5352 122.082 39.1211C120.65 39.707 119.094 40 117.414 40H103.703C103.339 40 103 39.9349 102.688 39.8047C102.375 39.6745 102.102 39.4987 101.867 39.2773C101.646 39.043 101.47 38.7695 101.34 38.457C101.21 38.1445 101.145 37.806 101.145 37.4414V14.5508C101.145 14.1992 101.21 13.8672 101.34 13.5547C101.47 13.2422 101.646 12.9688 101.867 12.7344C102.102 12.5 102.375 12.3177 102.688 12.1875C103 12.0573 103.339 11.9922 103.703 11.9922H117.414C119.094 11.9922 120.65 12.2852 122.082 12.8711C123.514 13.457 124.751 14.2708 125.793 15.3125C126.835 16.3411 127.648 17.5781 128.234 19.0234C128.833 20.4557 129.133 22.0182 129.133 23.7109V28.2812ZM124.055 23.7109C124.055 22.7214 123.892 21.8164 123.566 20.9961C123.254 20.1758 122.805 19.4792 122.219 18.9062C121.633 18.3203 120.93 17.8711 120.109 17.5586C119.302 17.2331 118.404 17.0703 117.414 17.0703H106.223V34.9219H117.414C118.404 34.9219 119.302 34.7656 120.109 34.4531C120.93 34.1276 121.633 33.6784 122.219 33.1055C122.805 32.5195 123.254 31.8229 123.566 31.0156C123.892 30.1953 124.055 29.2839 124.055 28.2812V23.7109ZM161.555 37.4414C161.555 37.806 161.49 38.1445 161.359 38.457C161.229 38.7695 161.047 39.043 160.812 39.2773C160.578 39.4987 160.305 39.6745 159.992 39.8047C159.68 39.9349 159.348 40 158.996 40H147.551C146.47 40 145.376 39.8828 144.27 39.6484C143.163 39.4141 142.089 39.056 141.047 38.5742C140.018 38.0794 139.048 37.4544 138.137 36.6992C137.225 35.944 136.424 35.0521 135.734 34.0234C135.057 32.9818 134.523 31.7969 134.133 30.4688C133.742 29.1276 133.547 27.6367 133.547 25.9961V11.9922H138.625V25.9961C138.625 27.4284 138.82 28.6393 139.211 29.6289C139.615 30.6185 140.122 31.4453 140.734 32.1094C141.346 32.7734 142.017 33.2943 142.746 33.6719C143.475 34.0495 144.165 34.3294 144.816 34.5117C145.48 34.694 146.06 34.8112 146.555 34.8633C147.062 34.9023 147.395 34.9219 147.551 34.9219H156.477V11.9922H161.555V37.4414ZM194.953 40H189.875V33.125H172.023V40H166.945V25.9961C166.945 23.9518 167.297 22.0703 168 20.3516C168.703 18.6328 169.68 17.1549 170.93 15.918C172.18 14.681 173.658 13.7174 175.363 13.0273C177.069 12.3372 178.931 11.9922 180.949 11.9922H192.395C192.746 11.9922 193.078 12.0573 193.391 12.1875C193.703 12.3177 193.977 12.5 194.211 12.7344C194.445 12.9688 194.628 13.2422 194.758 13.5547C194.888 13.8672 194.953 14.1992 194.953 14.5508V40ZM172.023 28.0469H189.875V17.0703H180.949C180.793 17.0703 180.461 17.0964 179.953 17.1484C179.458 17.1875 178.879 17.2982 178.215 17.4805C177.564 17.6628 176.874 17.9427 176.145 18.3203C175.415 18.6979 174.745 19.2188 174.133 19.8828C173.521 20.5469 173.013 21.3802 172.609 22.3828C172.219 23.3724 172.023 24.5768 172.023 25.9961V28.0469ZM205.988 40H200.91V11.9922H205.988V40ZM241.32 28.6719C241.32 30.3776 241.027 31.9466 240.441 33.3789C239.855 34.8112 239.042 36.0482 238 37.0898C236.958 38.1315 235.721 38.9453 234.289 39.5312C232.87 40.1042 231.32 40.3906 229.641 40.3906H222.766C221.086 40.3906 219.53 40.1042 218.098 39.5312C216.665 38.9453 215.428 38.1315 214.387 37.0898C213.345 36.0482 212.525 34.8112 211.926 33.3789C211.34 31.9466 211.047 30.3776 211.047 28.6719V23.3203C211.047 21.6276 211.34 20.0651 211.926 18.6328C212.525 17.1875 213.345 15.9505 214.387 14.9219C215.428 13.8802 216.665 13.0664 218.098 12.4805C219.53 11.8945 221.086 11.6016 222.766 11.6016H229.641C231.32 11.6016 232.87 11.8945 234.289 12.4805C235.721 13.0664 236.958 13.8802 238 14.9219C239.042 15.9505 239.855 17.1875 240.441 18.6328C241.027 20.0651 241.32 21.6276 241.32 23.3203V28.6719ZM236.242 23.3203C236.242 22.3177 236.079 21.4128 235.754 20.6055C235.441 19.7852 234.992 19.0885 234.406 18.5156C233.833 17.9297 233.137 17.4805 232.316 17.168C231.509 16.8424 230.617 16.6797 229.641 16.6797H222.766C221.776 16.6797 220.871 16.8424 220.051 17.168C219.243 17.4805 218.547 17.9297 217.961 18.5156C217.375 19.0885 216.919 19.7852 216.594 20.6055C216.281 21.4128 216.125 22.3177 216.125 23.3203V28.6719C216.125 29.6745 216.281 30.5859 216.594 31.4062C216.919 32.2135 217.375 32.9102 217.961 33.4961C218.547 34.069 219.243 34.5182 220.051 34.8438C220.871 35.1562 221.776 35.3125 222.766 35.3125H229.602C230.591 35.3125 231.49 35.1562 232.297 34.8438C233.117 34.5182 233.82 34.069 234.406 33.4961C234.992 32.9102 235.441 32.2135 235.754 31.4062C236.079 30.5859 236.242 29.6745 236.242 28.6719V23.3203ZM274.328 37.832C274.328 38.1966 274.257 38.5352 274.113 38.8477C273.983 39.1602 273.801 39.4336 273.566 39.668C273.345 39.8893 273.078 40.0651 272.766 40.1953C272.453 40.3255 272.121 40.3906 271.77 40.3906C271.457 40.3906 271.138 40.332 270.812 40.2148C270.5 40.0977 270.22 39.9089 269.973 39.6484L251.418 20.2734V40H246.34V14.1602C246.34 13.6393 246.483 13.1706 246.77 12.7539C247.069 12.3242 247.447 12.0052 247.902 11.7969C248.384 11.6016 248.879 11.556 249.387 11.6602C249.895 11.7513 250.331 11.9857 250.695 12.3633L269.25 31.7188V11.9922H274.328V37.832Z" fill="#142E34"/>
<path d="M68.946 58V50.08H69.848V58H68.946ZM69.408 58V57.208H74.248V58H69.408ZM69.408 54.271V53.479H73.852V54.271H69.408ZM69.408 50.872V50.08H74.16V50.872H69.408ZM75.9606 58V50.08H76.8956L81.4386 56.746L81.3066 56.768V50.08H82.1646V58H81.2296L76.6866 51.334L76.8186 51.312V58H75.9606ZM87.6243 58.11C86.8176 58.11 86.1173 57.945 85.5233 57.615C84.9293 57.285 84.4709 56.823 84.1483 56.229C83.8256 55.6277 83.6643 54.92 83.6643 54.106C83.6643 53.292 83.8219 52.577 84.1373 51.961C84.4599 51.3377 84.9036 50.85 85.4683 50.498C86.0403 50.146 86.6966 49.97 87.4373 49.97C88.0166 49.97 88.5409 50.08 89.0103 50.3C89.4869 50.52 89.8756 50.8243 90.1763 51.213C90.4843 51.6017 90.6713 52.0527 90.7373 52.566H89.8353C89.7619 52.0233 89.5089 51.5907 89.0763 51.268C88.6509 50.9453 88.1156 50.784 87.4703 50.784C86.8909 50.784 86.3849 50.9233 85.9523 51.202C85.5196 51.4733 85.1823 51.8547 84.9403 52.346C84.7056 52.8373 84.5883 53.4167 84.5883 54.084C84.5883 54.7513 84.7093 55.327 84.9513 55.811C85.2006 56.2877 85.5563 56.6543 86.0183 56.911C86.4876 57.1677 87.0486 57.296 87.7013 57.296C88.1486 57.296 88.5483 57.2337 88.9003 57.109C89.2523 56.977 89.5713 56.7753 89.8573 56.504L90.7593 56.834C90.3559 57.2593 89.8903 57.5783 89.3623 57.791C88.8416 58.0037 88.2623 58.11 87.6243 58.11ZM89.8573 56.834V54.271L90.1983 54.612H87.6903V53.82H90.7593V56.834H89.8573ZM92.4714 58V50.08H93.3734V58H92.4714ZM92.9334 58V57.208H97.4434V58H92.9334ZM98.9382 58V50.08H99.8402V58H98.9382ZM104.415 58.099C103.491 58.099 102.754 57.8717 102.204 57.417C101.661 56.9623 101.342 56.3133 101.247 55.47H102.127C102.208 56.0787 102.439 56.537 102.82 56.845C103.201 57.153 103.729 57.307 104.404 57.307C104.976 57.307 105.405 57.2007 105.691 56.988C105.984 56.768 106.131 56.449 106.131 56.031C106.131 55.6717 106.032 55.3857 105.834 55.173C105.636 54.9603 105.328 54.7843 104.91 54.645L103.579 54.183C102.904 53.9483 102.406 53.666 102.083 53.336C101.76 52.9987 101.599 52.5733 101.599 52.06C101.599 51.6347 101.705 51.268 101.918 50.96C102.131 50.6447 102.431 50.399 102.82 50.223C103.209 50.047 103.66 49.959 104.173 49.959C104.965 49.959 105.599 50.168 106.076 50.586C106.553 50.9967 106.828 51.5833 106.901 52.346H106.021C105.926 51.796 105.728 51.3927 105.427 51.136C105.134 50.8793 104.708 50.751 104.151 50.751C103.623 50.751 103.212 50.8573 102.919 51.07C102.626 51.2827 102.479 51.5833 102.479 51.972C102.479 52.302 102.582 52.566 102.787 52.764C102.992 52.962 103.311 53.1343 103.744 53.281L105.163 53.776C105.779 53.9887 106.241 54.2783 106.549 54.645C106.857 55.0043 107.011 55.4627 107.011 56.02C107.011 56.68 106.784 57.1933 106.329 57.56C105.882 57.9193 105.244 58.099 104.415 58.099ZM108.424 58V50.08H109.326V58H108.424ZM113.726 58V50.08H114.628V58H113.726ZM108.886 53.479H114.122V54.271H108.886V53.479ZM118.725 58V50.08H120.111L122.971 57.714H122.553L125.391 50.08H126.799V58H125.908V50.553H126.029L123.268 58H122.19L119.429 50.619H119.55V58H118.725ZM128.144 58L131.202 50.08H131.994L129.013 58H128.144ZM134.436 58L131.455 50.08H132.302L135.36 58H134.436ZM129.662 54.799H133.798V55.591H129.662V54.799ZM137.236 58V57.208H139.359C140.019 57.208 140.587 57.076 141.064 56.812C141.541 56.5407 141.907 56.163 142.164 55.679C142.421 55.195 142.549 54.634 142.549 53.996C142.549 53.3653 142.421 52.8153 142.164 52.346C141.907 51.8767 141.541 51.5137 141.064 51.257C140.595 51.0003 140.026 50.872 139.359 50.872H137.236V50.08H139.359C140.188 50.08 140.91 50.245 141.526 50.575C142.142 50.8977 142.619 51.356 142.956 51.95C143.301 52.5367 143.473 53.226 143.473 54.018C143.473 54.81 143.301 55.5067 142.956 56.108C142.611 56.702 142.131 57.1677 141.515 57.505C140.906 57.835 140.191 58 139.37 58H137.236ZM136.697 58V50.08H137.599V58H136.697ZM144.968 58V50.08H145.87V58H144.968ZM145.43 58V57.208H150.27V58H145.43ZM145.43 54.271V53.479H149.874V54.271H145.43ZM145.43 50.872V50.08H150.182V50.872H145.43ZM154.185 58V50.08H155.087V58H154.185ZM154.647 58V57.208H159.487V58H154.647ZM154.647 54.271V53.479H159.091V54.271H154.647ZM154.647 50.872V50.08H159.399V50.872H154.647ZM160.381 58L163.439 50.08H164.231L161.25 58H160.381ZM166.673 58L163.692 50.08H164.539L167.597 58H166.673ZM161.899 54.799H166.035V55.591H161.899V54.799ZM171.307 58.099C170.383 58.099 169.646 57.8717 169.096 57.417C168.553 56.9623 168.234 56.3133 168.139 55.47H169.019C169.099 56.0787 169.33 56.537 169.712 56.845C170.093 57.153 170.621 57.307 171.296 57.307C171.868 57.307 172.297 57.2007 172.583 56.988C172.876 56.768 173.023 56.449 173.023 56.031C173.023 55.6717 172.924 55.3857 172.726 55.173C172.528 54.9603 172.22 54.7843 171.802 54.645L170.471 54.183C169.796 53.9483 169.297 53.666 168.975 53.336C168.652 52.9987 168.491 52.5733 168.491 52.06C168.491 51.6347 168.597 51.268 168.81 50.96C169.022 50.6447 169.323 50.399 169.712 50.223C170.1 50.047 170.551 49.959 171.065 49.959C171.857 49.959 172.491 50.168 172.968 50.586C173.444 50.9967 173.719 51.5833 173.793 52.346H172.913C172.817 51.796 172.619 51.3927 172.319 51.136C172.025 50.8793 171.6 50.751 171.043 50.751C170.515 50.751 170.104 50.8573 169.811 51.07C169.517 51.2827 169.371 51.5833 169.371 51.972C169.371 52.302 169.473 52.566 169.679 52.764C169.884 52.962 170.203 53.1343 170.636 53.281L172.055 53.776C172.671 53.9887 173.133 54.2783 173.441 54.645C173.749 55.0043 173.903 55.4627 173.903 56.02C173.903 56.68 173.675 57.1933 173.221 57.56C172.773 57.9193 172.135 58.099 171.307 58.099ZM177.217 58V54.414L174.214 50.08H175.314L177.921 53.886H177.503L180.11 50.08H181.122L178.119 54.414V58H177.217ZM180.834 59.584V59.133C181.047 59.0523 181.201 58.924 181.296 58.748C181.392 58.5793 181.439 58.319 181.439 57.967L181.78 58H180.834V56.878H181.945V57.769C181.945 58.2383 181.857 58.627 181.681 58.935C181.505 59.243 181.223 59.4593 180.834 59.584ZM188.623 58.099C187.699 58.099 186.962 57.8717 186.412 57.417C185.869 56.9623 185.55 56.3133 185.455 55.47H186.335C186.416 56.0787 186.647 56.537 187.028 56.845C187.409 57.153 187.937 57.307 188.612 57.307C189.184 57.307 189.613 57.2007 189.899 56.988C190.192 56.768 190.339 56.449 190.339 56.031C190.339 55.6717 190.24 55.3857 190.042 55.173C189.844 54.9603 189.536 54.7843 189.118 54.645L187.787 54.183C187.112 53.9483 186.614 53.666 186.291 53.336C185.968 52.9987 185.807 52.5733 185.807 52.06C185.807 51.6347 185.913 51.268 186.126 50.96C186.339 50.6447 186.639 50.399 187.028 50.223C187.417 50.047 187.868 49.959 188.381 49.959C189.173 49.959 189.807 50.168 190.284 50.586C190.761 50.9967 191.036 51.5833 191.109 52.346H190.229C190.134 51.796 189.936 51.3927 189.635 51.136C189.342 50.8793 188.916 50.751 188.359 50.751C187.831 50.751 187.42 50.8573 187.127 51.07C186.834 51.2827 186.687 51.5833 186.687 51.972C186.687 52.302 186.79 52.566 186.995 52.764C187.2 52.962 187.519 53.1343 187.952 53.281L189.371 53.776C189.987 53.9887 190.449 54.2783 190.757 54.645C191.065 55.0043 191.219 55.4627 191.219 56.02C191.219 56.68 190.992 57.1933 190.537 57.56C190.09 57.9193 189.452 58.099 188.623 58.099ZM192.632 58V50.08H194.018L196.878 57.714H196.46L199.298 50.08H200.706V58H199.815V50.553H199.936L197.175 58H196.097L193.336 50.619H193.457V58H192.632ZM202.05 58L205.108 50.08H205.9L202.919 58H202.05ZM208.342 58L205.361 50.08H206.208L209.266 58H208.342ZM203.568 54.799H207.704V55.591H203.568V54.799ZM210.388 58V50.08H213.314C213.879 50.08 214.359 50.1717 214.755 50.355C215.151 50.5383 215.452 50.795 215.657 51.125C215.87 51.4477 215.976 51.8327 215.976 52.28C215.976 52.7273 215.87 53.1197 215.657 53.457C215.452 53.787 215.151 54.0473 214.755 54.238C214.359 54.4213 213.879 54.513 213.314 54.513H211.048V53.721H213.281C213.868 53.721 214.312 53.5927 214.612 53.336C214.92 53.0793 215.074 52.7273 215.074 52.28C215.074 51.84 214.924 51.4953 214.623 51.246C214.323 50.9967 213.875 50.872 213.281 50.872H211.29V58H210.388ZM215.03 58L210.817 54.073H212.049L216.394 58H215.03ZM219.377 58V50.872H216.66V50.08H222.996V50.872H220.279V58H219.377ZM224.342 58V50.08H225.244V58H224.342ZM224.804 58V57.208H229.644V58H224.804ZM224.804 54.271V53.479H229.248V54.271H224.804ZM224.804 50.872V50.08H229.556V50.872H224.804ZM231.003 58V50.08H233.929C234.493 50.08 234.974 50.1717 235.37 50.355C235.766 50.5383 236.066 50.795 236.272 51.125C236.484 51.4477 236.591 51.8327 236.591 52.28C236.591 52.7273 236.484 53.1197 236.272 53.457C236.066 53.787 235.766 54.0473 235.37 54.238C234.974 54.4213 234.493 54.513 233.929 54.513H231.663V53.721H233.896C234.482 53.721 234.926 53.5927 235.227 53.336C235.535 53.0793 235.689 52.7273 235.689 52.28C235.689 51.84 235.538 51.4953 235.238 51.246C234.937 50.9967 234.49 50.872 233.896 50.872H231.905V58H231.003ZM235.645 58L231.432 54.073H232.664L237.009 58H235.645ZM242.371 58L240.028 50.08H240.952L243.053 57.395H242.888L244.945 50.08H246.045L248.113 57.395H247.948L250.038 50.08H250.907L248.564 58H247.464L245.407 50.905H245.539L243.471 58H242.371ZM252.401 58V50.08H253.303V58H252.401ZM257.361 58V50.872H254.644V50.08H260.98V50.872H258.263V58H257.361ZM262.327 58V50.08H263.229V58H262.327ZM267.629 58V50.08H268.531V58H267.629ZM262.789 53.479H268.025V54.271H262.789V53.479ZM272.079 58L275.137 50.08H275.929L272.948 58H272.079ZM278.371 58L275.39 50.08H276.237L279.295 58H278.371ZM273.597 54.799H277.733V55.591H273.597V54.799ZM280.632 58V50.08H281.534V58H280.632Z" fill="black"/>
<path d="M34.1607 9.488H5.26466C4.27496 9.488 3.47266 10.2903 3.47266 11.28V20.016C3.47266 21.0057 4.27496 21.808 5.26466 21.808H34.1607C35.1503 21.808 35.9527 21.0057 35.9527 20.016V11.28C35.9527 10.2903 35.1503 9.488 34.1607 9.488Z" fill="#142E34"/>
<path d="M34.1607 41.296H5.26466C4.27496 41.296 3.47266 42.0983 3.47266 43.088V51.824C3.47266 52.8137 4.27496 53.616 5.26466 53.616H34.1607C35.1503 53.616 35.9527 52.8137 35.9527 51.824V43.088C35.9527 42.0983 35.1503 41.296 34.1607 41.296Z" fill="#142E34"/>
<path d="M50.4009 25.392H21.5049C20.5152 25.392 19.7129 26.1943 19.7129 27.184V35.92C19.7129 36.9097 20.5152 37.712 21.5049 37.712H50.4009C51.3906 37.712 52.1929 36.9097 52.1929 35.92V27.184C52.1929 26.1943 51.3906 25.392 50.4009 25.392Z" fill="#142E34"/>
<path d="M46.0311 21.808C49.4332 21.808 52.1911 19.0501 52.1911 15.648C52.1911 12.2459 49.4332 9.488 46.0311 9.488C42.629 9.488 39.8711 12.2459 39.8711 15.648C39.8711 19.0501 42.629 21.808 46.0311 21.808Z" fill="#142E34"/>
<path d="M46.0311 53.616C49.4332 53.616 52.1911 50.8581 52.1911 47.456C52.1911 44.0539 49.4332 41.296 46.0311 41.296C42.629 41.296 39.8711 44.0539 39.8711 47.456C39.8711 50.8581 42.629 53.616 46.0311 53.616Z" fill="#142E34"/>
<path d="M9.63266 37.712C13.0347 37.712 15.7927 34.9541 15.7927 31.552C15.7927 28.1499 13.0347 25.392 9.63266 25.392C6.23058 25.392 3.47266 28.1499 3.47266 31.552C3.47266 34.9541 6.23058 37.712 9.63266 37.712Z" fill="#142E34"/>
</svg>
