<svg width="206" height="41" viewBox="0 0 206 41" fill="none" xmlns="http://www.w3.org/2000/svg">
<path d="M19.5204 7.63599H3.00838C2.44284 7.63599 1.98438 8.09445 1.98438 8.65999V13.652C1.98438 14.2175 2.44284 14.676 3.00838 14.676H19.5204C20.0859 14.676 20.5444 14.2175 20.5444 13.652V8.65999C20.5444 8.09445 20.0859 7.63599 19.5204 7.63599Z" fill="#142E34"/>
<path d="M19.5204 25.812H3.00838C2.44284 25.812 1.98438 26.2705 1.98438 26.836V31.828C1.98438 32.3936 2.44284 32.852 3.00838 32.852H19.5204C20.0859 32.852 20.5444 32.3936 20.5444 31.828V26.836C20.5444 26.2705 20.0859 25.812 19.5204 25.812Z" fill="#142E34"/>
<path d="M28.7997 16.7241H12.2877C11.7221 16.7241 11.2637 17.1826 11.2637 17.7481V22.7401C11.2637 23.3057 11.7221 23.7641 12.2877 23.7641H28.7997C29.3652 23.7641 29.8237 23.3057 29.8237 22.7401V17.7481C29.8237 17.1826 29.3652 16.7241 28.7997 16.7241Z" fill="#142E34"/>
<path d="M26.3032 14.676C28.2472 14.676 29.8232 13.1 29.8232 11.156C29.8232 9.21194 28.2472 7.63599 26.3032 7.63599C24.3592 7.63599 22.7832 9.21194 22.7832 11.156C22.7832 13.1 24.3592 14.676 26.3032 14.676Z" fill="#142E34"/>
<path d="M26.3032 32.852C28.2472 32.852 29.8232 31.2761 29.8232 29.332C29.8232 27.388 28.2472 25.812 26.3032 25.812C24.3592 25.812 22.7832 27.388 22.7832 29.332C22.7832 31.2761 24.3592 32.852 26.3032 32.852Z" fill="#142E34"/>
<path d="M5.50437 23.7641C7.44842 23.7641 9.02437 22.1882 9.02437 20.2441C9.02437 18.3001 7.44842 16.7241 5.50437 16.7241C3.56033 16.7241 1.98438 18.3001 1.98438 20.2441C1.98438 22.1882 3.56033 23.7641 5.50437 23.7641Z" fill="#142E34"/>
<path d="M58.7812 22.8438H45.9531V18.75H58.7812V22.8438ZM60.6094 32H45.9531C45.3906 32 44.776 31.901 44.1094 31.7031C43.4427 31.5052 42.8229 31.1823 42.25 30.7344C41.6875 30.276 41.2135 29.6875 40.8281 28.9688C40.4531 28.2396 40.2656 27.349 40.2656 26.2969V11.6406C40.2656 11.3594 40.3177 11.0938 40.4219 10.8438C40.526 10.5938 40.6667 10.375 40.8438 10.1875C41.0312 10 41.25 9.85417 41.5 9.75C41.75 9.64583 42.0208 9.59375 42.3125 9.59375H60.6094V13.6562H44.3281V26.2969C44.3281 26.8281 44.4688 27.2344 44.75 27.5156C45.0312 27.7969 45.4427 27.9375 45.9844 27.9375H60.6094V32ZM86.9062 22.625C86.9062 23.9896 86.6667 25.2448 86.1875 26.3906C85.7188 27.5365 85.0677 28.526 84.2344 29.3594C83.401 30.1823 82.4115 30.8281 81.2656 31.2969C80.1198 31.7656 78.875 32 77.5312 32H66.5625C66.2708 32 66 31.9479 65.75 31.8438C65.5 31.7396 65.2812 31.599 65.0938 31.4219C64.9167 31.2344 64.776 31.0156 64.6719 30.7656C64.5677 30.5156 64.5156 30.2448 64.5156 29.9531V11.6406C64.5156 11.3594 64.5677 11.0938 64.6719 10.8438C64.776 10.5938 64.9167 10.375 65.0938 10.1875C65.2812 10 65.5 9.85417 65.75 9.75C66 9.64583 66.2708 9.59375 66.5625 9.59375H77.5312C78.875 9.59375 80.1198 9.82812 81.2656 10.2969C82.4115 10.7656 83.401 11.4167 84.2344 12.25C85.0677 13.0729 85.7188 14.0625 86.1875 15.2188C86.6667 16.3646 86.9062 17.6146 86.9062 18.9688V22.625ZM82.8438 18.9688C82.8438 18.1771 82.7135 17.4531 82.4531 16.7969C82.2031 16.1406 81.8438 15.5833 81.375 15.125C80.9062 14.6562 80.3438 14.2969 79.6875 14.0469C79.0417 13.7865 78.3229 13.6562 77.5312 13.6562H68.5781V27.9375H77.5312C78.3229 27.9375 79.0417 27.8125 79.6875 27.5625C80.3438 27.3021 80.9062 26.9427 81.375 26.4844C81.8438 26.0156 82.2031 25.4583 82.4531 24.8125C82.7135 24.1562 82.8438 23.4271 82.8438 22.625V18.9688ZM112.844 29.9531C112.844 30.2448 112.792 30.5156 112.688 30.7656C112.583 31.0156 112.438 31.2344 112.25 31.4219C112.062 31.599 111.844 31.7396 111.594 31.8438C111.344 31.9479 111.078 32 110.797 32H101.641C100.776 32 99.901 31.9062 99.0156 31.7188C98.1302 31.5312 97.2708 31.2448 96.4375 30.8594C95.6146 30.4635 94.8385 29.9635 94.1094 29.3594C93.3802 28.7552 92.7396 28.0417 92.1875 27.2188C91.6458 26.3854 91.2188 25.4375 90.9062 24.375C90.5938 23.3021 90.4375 22.1094 90.4375 20.7969V9.59375H94.5V20.7969C94.5 21.9427 94.6562 22.9115 94.9688 23.7031C95.2917 24.4948 95.6979 25.1562 96.1875 25.6875C96.6771 26.2188 97.2135 26.6354 97.7969 26.9375C98.3802 27.2396 98.9323 27.4635 99.4531 27.6094C99.9844 27.7552 100.448 27.849 100.844 27.8906C101.25 27.9219 101.516 27.9375 101.641 27.9375H108.781V9.59375H112.844V29.9531ZM139.562 32H135.5V26.5H121.219V32H117.156V20.7969C117.156 19.1615 117.438 17.6562 118 16.2812C118.562 14.9062 119.344 13.724 120.344 12.7344C121.344 11.7448 122.526 10.974 123.891 10.4219C125.255 9.86979 126.745 9.59375 128.359 9.59375H137.516C137.797 9.59375 138.062 9.64583 138.312 9.75C138.562 9.85417 138.781 10 138.969 10.1875C139.156 10.375 139.302 10.5938 139.406 10.8438C139.51 11.0938 139.562 11.3594 139.562 11.6406V32ZM121.219 22.4375H135.5V13.6562H128.359C128.234 13.6562 127.969 13.6771 127.562 13.7188C127.167 13.75 126.703 13.8385 126.172 13.9844C125.651 14.1302 125.099 14.3542 124.516 14.6562C123.932 14.9583 123.396 15.375 122.906 15.9062C122.417 16.4375 122.01 17.1042 121.688 17.9062C121.375 18.6979 121.219 19.6615 121.219 20.7969V22.4375ZM148.391 32H144.328V9.59375H148.391V32ZM176.656 22.9375C176.656 24.3021 176.422 25.5573 175.953 26.7031C175.484 27.849 174.833 28.8385 174 29.6719C173.167 30.5052 172.177 31.1562 171.031 31.625C169.896 32.0833 168.656 32.3125 167.312 32.3125H161.812C160.469 32.3125 159.224 32.0833 158.078 31.625C156.932 31.1562 155.943 30.5052 155.109 29.6719C154.276 28.8385 153.62 27.849 153.141 26.7031C152.672 25.5573 152.438 24.3021 152.438 22.9375V18.6562C152.438 17.3021 152.672 16.0521 153.141 14.9062C153.62 13.75 154.276 12.7604 155.109 11.9375C155.943 11.1042 156.932 10.4531 158.078 9.98438C159.224 9.51562 160.469 9.28125 161.812 9.28125H167.312C168.656 9.28125 169.896 9.51562 171.031 9.98438C172.177 10.4531 173.167 11.1042 174 11.9375C174.833 12.7604 175.484 13.75 175.953 14.9062C176.422 16.0521 176.656 17.3021 176.656 18.6562V22.9375ZM172.594 18.6562C172.594 17.8542 172.464 17.1302 172.203 16.4844C171.953 15.8281 171.594 15.2708 171.125 14.8125C170.667 14.3438 170.109 13.9844 169.453 13.7344C168.807 13.474 168.094 13.3438 167.312 13.3438H161.812C161.021 13.3438 160.297 13.474 159.641 13.7344C158.995 13.9844 158.438 14.3438 157.969 14.8125C157.5 15.2708 157.135 15.8281 156.875 16.4844C156.625 17.1302 156.5 17.8542 156.5 18.6562V22.9375C156.5 23.7396 156.625 24.4688 156.875 25.125C157.135 25.7708 157.5 26.3281 157.969 26.7969C158.438 27.2552 158.995 27.6146 159.641 27.875C160.297 28.125 161.021 28.25 161.812 28.25H167.281C168.073 28.25 168.792 28.125 169.438 27.875C170.094 27.6146 170.656 27.2552 171.125 26.7969C171.594 26.3281 171.953 25.7708 172.203 25.125C172.464 24.4688 172.594 23.7396 172.594 22.9375V18.6562ZM203.062 30.2656C203.062 30.5573 203.005 30.8281 202.891 31.0781C202.786 31.3281 202.641 31.5469 202.453 31.7344C202.276 31.9115 202.062 32.0521 201.812 32.1562C201.562 32.2604 201.297 32.3125 201.016 32.3125C200.766 32.3125 200.51 32.2656 200.25 32.1719C200 32.0781 199.776 31.9271 199.578 31.7188L184.734 16.2188V32H180.672V11.3281C180.672 10.9115 180.786 10.5365 181.016 10.2031C181.255 9.85938 181.557 9.60417 181.922 9.4375C182.307 9.28125 182.703 9.24479 183.109 9.32812C183.516 9.40104 183.865 9.58854 184.156 9.89062L199 25.375V9.59375H203.062V30.2656Z" fill="#142E34"/>
</svg>
