<svg width="5554" height="772" viewBox="0 0 5554 772" fill="none" xmlns="http://www.w3.org/2000/svg">
<path d="M3909.12 462.92C3909.12 519.704 3955.05 565.842 4011.93 565.842C4068.81 565.842 4114.74 519.859 4114.74 462.92C4114.74 405.981 4068.81 359.998 4011.93 359.998C3955.05 359.998 3909.12 406.135 3909.12 462.92Z" fill="#FFFEFC"/>
<path d="M3960.6 462.919C3960.6 491.311 3983.57 514.303 4011.93 514.303C4040.29 514.303 4063.26 491.311 4063.26 462.919C4063.26 434.527 4040.29 411.535 4011.93 411.535C3983.57 411.535 3960.6 434.527 3960.6 462.919Z" fill="#C3E04F"/>
<path d="M4166.07 51.3837C4166.07 79.776 4189.03 102.768 4217.4 102.768C4245.76 102.768 4268.72 79.776 4268.72 51.3837C4268.72 22.9914 4245.76 -0.000215698 4217.4 -0.000215698C4189.03 -0.000215698 4166.07 22.9914 4166.07 51.3837Z" fill="#C3E04F"/>
<path d="M5090.9 257.228C5090.9 228.836 5067.93 205.845 5039.57 205.845C5011.21 205.845 4988.24 228.836 4988.24 257.228C4988.24 285.621 5011.21 308.612 5039.57 308.612C5067.93 308.612 5090.9 285.621 5090.9 257.228Z" fill="#C3E04F"/>
<path d="M5553.31 771.531H5347.85V565.841H5553.31V771.531Z" fill="#C3E04F"/>
<path d="M5501.98 668.609C5501.98 640.217 5479.02 617.226 5450.65 617.226C5422.29 617.226 5399.33 640.217 5399.33 668.609C5399.33 697.002 5422.29 719.993 5450.65 719.993C5478.86 720.148 5501.98 697.002 5501.98 668.609Z" fill="#083643"/>
<path d="M720.456 565.842C720.456 622.626 766.439 668.764 823.378 668.764C880.317 668.764 926.146 622.626 926.146 565.842C926.146 509.057 880.163 462.92 823.224 462.92C766.285 462.92 720.456 508.903 720.456 565.842Z" fill="#77D9C9"/>
<path d="M206 462.92C206 519.704 251.983 565.842 308.922 565.842C365.861 565.842 411.844 519.859 411.844 462.92C411.844 405.981 365.861 359.998 308.922 359.998C251.983 359.998 206 406.135 206 462.92Z" fill="#FFFEFC"/>
<path d="M257.538 462.919C257.538 491.311 280.53 514.303 308.922 514.303C337.314 514.303 360.306 491.311 360.306 462.919C360.306 434.527 337.314 411.535 308.922 411.535C280.53 411.535 257.538 434.527 257.538 462.919Z" fill="#C3E04F"/>
<path d="M1646.29 668.609C1646.29 611.825 1600.31 565.687 1543.37 565.687C1486.43 565.687 1440.45 611.67 1440.45 668.609C1440.45 725.548 1486.59 771.531 1543.37 771.531C1600.15 771.531 1646.29 725.548 1646.29 668.609Z" fill="#77D9C9"/>
<path d="M1594.75 668.61C1594.75 640.218 1571.76 617.226 1543.37 617.226C1514.98 617.226 1491.99 640.218 1491.99 668.61C1491.99 697.003 1514.98 719.994 1543.37 719.994C1571.76 719.994 1594.75 697.003 1594.75 668.61Z" fill="#C3E04F"/>
<path d="M3086.31 564.849C3086.31 451.28 3178.43 359.159 3292 359.159V564.849H3086.31Z" fill="#C3E04F"/>
<path d="M3292 565.314V771.004H3189.23C3246.1 770.924 3292 724.817 3292 668.082C3292 613.193 3249.18 568.253 3194.89 565.314H3292ZM3183.57 565.314C3129.28 568.253 3086.31 613.193 3086.31 668.082C3086.31 724.972 3132.06 770.924 3188.93 771.004H3086.31V565.314H3183.57Z" fill="#C3E04F"/>
<path d="M3601.15 562.082C3601.15 618.867 3555.17 665.004 3498.23 665.004C3441.29 665.004 3395.31 619.021 3395.31 562.082C3395.31 505.298 3441.29 459.16 3498.23 459.16C3555.17 459.16 3601.15 505.143 3601.15 562.082Z" fill="#C3E04F"/>
<path d="M3703.84 359.159V770.693H3498.69C3612.01 770.406 3703.84 678.397 3703.84 565.005C3703.84 451.282 3611.72 359.316 3498.15 359.315C3384.59 359.315 3292.47 451.436 3292.46 565.005C3292.46 678.397 3384.3 770.406 3497.62 770.693H3292.31V359.159H3703.84Z" fill="#C3E04F"/>
<path d="M3498 153.159V358.849H3292.31C3405.88 358.849 3498 266.728 3498 153.159Z" fill="#C3E04F"/>
</svg>
