<svg width="5553" height="1236" viewBox="0 0 5553 1236" fill="none" xmlns="http://www.w3.org/2000/svg">
<path d="M3908.81 1235.37H3703.34V1029.68H3908.81V1235.37Z" fill="#C3E04F"/>
<path d="M4114.28 1235.37H3908.81V1029.68H4114.28V1235.37Z" fill="#CEF09D"/>
<path d="M3908.81 1235.37C4022.41 1235.37 4114.43 1143.25 4114.43 1029.68H3908.81V1235.37Z" fill="#77D9C9"/>
<path d="M4319.9 1235.37H4114.43V1029.68H4319.9V1235.37Z" fill="#C3E04F"/>
<path d="M4114.43 1132.45C4114.43 1189.23 4160.36 1235.37 4217.24 1235.37C4274.12 1235.37 4319.9 1189.39 4319.9 1132.45C4319.9 1075.51 4273.96 1029.53 4217.09 1029.53C4160.21 1029.53 4114.43 1075.66 4114.43 1132.45Z" fill="#FFFEFC"/>
<path d="M4730.98 1235.37H4319.9V823.837H4730.98V1235.37Z" fill="#083643"/>
<path d="M4422.71 1029.68C4422.71 1086.47 4468.64 1132.6 4525.52 1132.6C4582.39 1132.6 4628.17 1086.47 4628.17 1029.68C4628.17 972.897 4582.24 926.759 4525.36 926.759C4468.49 926.759 4422.71 972.743 4422.71 1029.68Z" fill="#77D9C9"/>
<path d="M4730.98 1029.68C4730.98 1143.25 4823 1235.37 4936.45 1235.37V1029.68H4730.98Z" fill="#C3E04F"/>
<path d="M3703.34 1029.68C3816.79 1029.68 3908.81 937.561 3908.81 823.992H3703.34V1029.68Z" fill="#C3E04F"/>
<path d="M4114.28 1029.68H3908.81V823.992H4114.28V1029.68Z" fill="#C3E04F"/>
<path d="M3908.81 926.76C3908.81 983.544 3954.74 1029.68 4011.62 1029.68C4068.5 1029.68 4114.43 983.698 4114.43 926.76C4114.43 869.821 4068.5 823.837 4011.62 823.837C3954.74 823.837 3908.81 869.975 3908.81 926.76Z" fill="#FFFEFC"/>
<path d="M3960.29 926.759C3960.29 955.151 3983.26 978.143 4011.62 978.143C4039.98 978.143 4062.95 955.151 4062.95 926.759C4062.95 898.366 4039.98 875.375 4011.62 875.375C3983.26 875.375 3960.29 898.366 3960.29 926.759Z" fill="#C3E04F"/>
<path d="M4319.9 1029.68H4114.43V823.992H4319.9V1029.68Z" fill="#083643"/>
<path d="M4319.9 1029.68C4319.9 916.112 4227.88 823.992 4114.43 823.992V1029.68H4319.9Z" fill="#CEF09D"/>
<path d="M4936.45 1029.68H4730.98V823.992H4936.45V1029.68Z" fill="#FFFEFC"/>
<path d="M4730.98 823.835C4730.98 937.405 4823 1029.53 4936.45 1029.53V823.835H4730.98Z" fill="#083643"/>
<path d="M3908.81 823.836H3703.34V618.146H3908.81V823.836Z" fill="#FFFEFC"/>
<path d="M3754.67 721.069C3754.67 749.462 3777.64 772.453 3806 772.453C3834.36 772.453 3857.33 749.462 3857.33 721.069C3857.33 692.677 3834.36 669.685 3806 669.685C3777.64 669.685 3754.67 692.677 3754.67 721.069Z" fill="#FFFEFC"/>
<path d="M4114.28 823.836H3908.81V618.146H4114.28V823.836Z" fill="#C3E04F"/>
<path d="M3908.81 618.146C3908.81 731.715 4000.83 823.836 4114.28 823.836V618.146H3908.81Z" fill="#77D9C9"/>
<path d="M4319.9 823.836H4114.43V618.146H4319.9V823.836Z" fill="#CEF09D"/>
<path d="M4114.43 823.836C4227.88 823.836 4319.9 731.715 4319.9 618.146H4114.43V823.836Z" fill="#FFFEFC"/>
<path d="M4525.36 823.836H4319.9V618.146H4525.36V823.836Z" fill="#C3E04F"/>
<path d="M4525.36 618.146C4411.92 618.146 4319.9 710.267 4319.9 823.836H4525.36V618.146Z" fill="#CEF09D"/>
<path d="M4730.83 823.836H4525.36V618.146H4730.83V823.836Z" fill="#083643"/>
<path d="M4525.36 618.146C4525.36 731.715 4617.38 823.836 4730.83 823.836V618.146H4525.36Z" fill="#FFFEFC"/>
<path d="M4936.45 823.836C4936.45 710.267 4844.43 618.146 4730.98 618.146V823.836H4936.45Z" fill="#C3E04F"/>
<path d="M4114.43 618.147H3703.34V206.613H4114.43V618.147Z" fill="#FFFEFC"/>
<path d="M4114.43 618.147C4114.43 390.855 3930.39 206.613 3703.34 206.613V618.147H4114.43Z" fill="#083643"/>
<path d="M4165.76 515.224C4165.76 543.617 4188.72 566.608 4217.09 566.608C4245.45 566.608 4268.41 543.617 4268.41 515.224C4268.41 486.832 4245.45 463.841 4217.09 463.841C4188.72 463.841 4165.76 486.832 4165.76 515.224Z" fill="#C3E04F"/>
<path d="M4319.9 412.457C4319.9 298.888 4227.88 206.767 4114.43 206.767V412.457H4319.9Z" fill="#FFFEFC"/>
<path d="M4525.36 412.457H4319.9V206.767H4525.36V412.457Z" fill="#FFFEFC"/>
<path d="M3960.29 103.846C3960.29 132.238 3983.26 155.229 4011.62 155.229C4039.98 155.229 4062.95 132.238 4062.95 103.846C4062.95 75.4533 4039.98 52.4617 4011.62 52.4617C3983.26 52.4617 3960.29 75.4533 3960.29 103.846Z" fill="#083643"/>
<path d="M4319.9 206.613H4114.43V0.923431H4319.9V206.613Z" fill="#FFFEFC"/>
<path d="M5553 618.147H5347.54V412.458H5553V618.147Z" fill="#FFFEFC"/>
<path d="M5501.67 515.225C5501.67 486.832 5478.71 463.841 5450.34 463.841C5421.98 463.841 5399.02 486.832 5399.02 515.225C5399.02 543.617 5421.98 566.609 5450.34 566.609C5478.55 566.763 5501.67 543.617 5501.67 515.225Z" fill="#FFFEFC"/>
<path d="M5141.91 412.458C5028.47 412.458 4936.45 504.578 4936.45 618.147H5141.91V412.458Z" fill="#FFFEFC"/>
<path d="M5090.59 721.069C5090.59 692.677 5067.62 669.685 5039.26 669.685C5010.9 669.685 4987.93 692.677 4987.93 721.069C4987.93 749.462 5010.9 772.453 5039.26 772.453C5067.62 772.453 5090.59 749.462 5090.59 721.069Z" fill="#C3E04F"/>
<path d="M5141.91 1029.68H4936.45V823.992H5141.91V1029.68Z" fill="#C3E04F"/>
<path d="M4936.45 823.835C4936.45 937.405 5028.47 1029.53 5141.91 1029.53V823.835H4936.45Z" fill="#CEF09D"/>
<path d="M5553 1235.37H5347.54V1029.68H5553V1235.37Z" fill="#C3E04F"/>
<path d="M5501.67 1132.45C5501.67 1104.06 5478.71 1081.07 5450.34 1081.07C5421.98 1081.07 5399.02 1104.06 5399.02 1132.45C5399.02 1160.84 5421.98 1183.83 5450.34 1183.83C5478.55 1183.99 5501.67 1160.84 5501.67 1132.45Z" fill="#083643"/>
<path d="M5347.38 1235.37H5141.91V1029.68H5347.38V1235.37Z" fill="#C3E04F"/>
<path d="M5347.53 1132.45C5347.53 1075.66 5301.6 1029.53 5244.72 1029.53C5187.85 1029.53 5141.91 1075.51 5141.91 1132.45C5141.91 1189.39 5188 1235.37 5244.72 1235.37C5301.45 1235.37 5347.53 1189.39 5347.53 1132.45Z" fill="#77D9C9"/>
<path d="M5296.05 1132.45C5296.05 1104.06 5273.09 1081.06 5244.73 1081.06C5216.36 1081.06 5193.4 1104.06 5193.4 1132.45C5193.4 1160.84 5216.36 1183.83 5244.73 1183.83C5273.09 1183.83 5296.05 1160.84 5296.05 1132.45Z" fill="#C3E04F"/>
<path d="M5141.91 1235.37H4936.45V1029.68H5141.91V1235.37Z" fill="#FFFEFC"/>
<path d="M5141.91 1029.68C5028.47 1029.68 4936.45 1121.8 4936.45 1235.37H5141.91V1029.68Z" fill="#C3E04F"/>
<path d="M2571.82 206.613C2571.82 149.828 2617.8 103.69 2674.74 103.69C2731.68 103.69 2777.51 149.828 2777.51 206.613C2777.51 263.397 2731.52 309.535 2674.59 309.535C2617.65 309.535 2571.82 263.551 2571.82 206.613Z" fill="#77D9C9"/>
<path d="M3086.12 0.923828H2880.43V206.614H3086.12V0.923828Z" fill="#77D9C9"/>
<path d="M2057.36 618.148C2057.36 504.579 2149.48 412.458 2263.05 412.458V618.148H2057.36Z" fill="#77D9C9"/>
<path d="M2468.9 412.458H2263.21V618.148H2468.9V412.458Z" fill="#CEF09D"/>
<path d="M2263.21 412.458C2376.77 412.458 2468.9 504.579 2468.9 618.148H2263.21V412.458Z" fill="#FFFEFC"/>
<path d="M2674.59 618.148C2561.02 618.148 2468.9 526.027 2468.9 412.458H2674.59V618.148Z" fill="#CEF09D"/>
<path d="M2880.28 412.458H2674.59V618.148H2880.28V412.458Z" fill="#083643"/>
<path d="M2674.59 618.148C2674.59 504.579 2766.71 412.458 2880.28 412.458V618.148H2674.59Z" fill="#FFFEFC"/>
<path d="M3086.12 412.458H2880.43V618.148H3086.12V412.458Z" fill="#CEF09D"/>
<path d="M3086.12 412.458C3086.12 526.027 2994 618.148 2880.43 618.148V412.458H3086.12Z" fill="#C3E04F"/>
<path d="M2263.21 618.147H1851.67V1029.68H2263.21V618.147Z" fill="#FFFEFC"/>
<path d="M2468.9 618.147H2263.21V823.837H2468.9V618.147Z" fill="#083643"/>
<path d="M2314.59 721.07C2314.59 692.678 2337.58 669.687 2365.97 669.687C2394.37 669.687 2417.36 692.678 2417.36 721.07C2417.36 749.463 2394.37 772.454 2365.97 772.454C2337.58 772.454 2314.59 749.463 2314.59 721.07Z" fill="#C3E04F"/>
<path d="M2674.59 618.147H2468.9V823.837H2674.59V618.147Z" fill="#C3E04F"/>
<path d="M2880.28 618.147H2674.59V823.837H2880.28V618.147Z" fill="#083643"/>
<path d="M2674.59 721.07C2674.59 664.285 2720.57 618.147 2777.51 618.147C2834.45 618.147 2880.43 664.131 2880.43 721.07C2880.43 778.008 2834.45 823.992 2777.51 823.992C2720.57 823.992 2674.59 777.854 2674.59 721.07Z" fill="#77D9C9"/>
<path d="M2726.12 721.07C2726.12 692.678 2749.12 669.687 2777.51 669.687C2805.9 669.687 2828.89 692.678 2828.89 721.07C2828.89 749.463 2805.9 772.454 2777.51 772.454C2749.12 772.454 2726.12 749.463 2726.12 721.07Z" fill="#083643"/>
<path d="M3086.12 618.147H2880.43V823.837H3086.12V618.147Z" fill="#FFFEFC"/>
<path d="M2880.43 721.07C2880.43 664.285 2926.41 618.147 2983.35 618.147C3040.29 618.147 3086.27 664.131 3086.27 721.07C3086.27 778.008 3040.29 823.992 2983.35 823.992C2926.41 823.992 2880.43 777.854 2880.43 721.07Z" fill="#C3E04F"/>
<path d="M2468.9 823.837H2263.21V1029.53H2468.9V823.837Z" fill="#C3E04F"/>
<path d="M2468.9 823.837C2468.9 937.406 2376.77 1029.53 2263.21 1029.53V823.837H2468.9Z" fill="#FFFEFC"/>
<path d="M2674.59 823.837H2468.9V1029.53H2674.59V823.837Z" fill="#FFFEFC"/>
<path d="M2468.9 926.759C2468.9 869.974 2514.88 823.837 2571.82 823.837C2628.76 823.837 2674.74 869.82 2674.74 926.759C2674.74 983.698 2628.76 1029.68 2571.82 1029.68C2514.88 1029.68 2468.9 983.544 2468.9 926.759Z" fill="#77D9C9"/>
<path d="M2880.28 823.837H2674.59V1029.53H2880.28V823.837Z" fill="#C3E04F"/>
<path d="M2880.43 1029.68C2766.86 1029.68 2674.74 937.561 2674.74 823.992H2880.43V1029.68Z" fill="#CEF09D"/>
<path d="M3086.12 823.837H2880.43V1029.53H3086.12V823.837Z" fill="#C3E04F"/>
<path d="M2880.43 926.759C2880.43 869.974 2926.41 823.837 2983.35 823.837C3040.29 823.837 3086.12 869.974 3086.12 926.759C3086.12 983.544 3040.14 1029.68 2983.2 1029.68C2926.26 1029.68 2880.43 983.544 2880.43 926.759Z" fill="#083643"/>
<path d="M2057.36 1029.68H1851.67V1235.37H2057.36V1029.68Z" fill="#083643"/>
<path d="M1903.06 1132.45C1903.06 1104.06 1926.05 1081.06 1954.44 1081.06C1982.83 1081.06 2005.82 1104.06 2005.82 1132.45C2005.82 1160.84 1982.83 1183.83 1954.44 1183.83C1926.05 1183.83 1903.06 1160.84 1903.06 1132.45Z" fill="#CEF09D"/>
<path d="M2263.05 1029.68H2057.36V1235.37H2263.05V1029.68Z" fill="#C3E04F"/>
<path d="M2057.36 1132.45C2057.36 1075.66 2103.34 1029.53 2160.28 1029.53C2217.22 1029.53 2263.21 1075.51 2263.21 1132.45C2263.21 1189.39 2217.07 1235.37 2160.28 1235.37C2103.5 1235.37 2057.36 1189.39 2057.36 1132.45Z" fill="#77D9C9"/>
<path d="M2108.9 1132.45C2108.9 1104.06 2131.89 1081.06 2160.28 1081.06C2188.68 1081.06 2211.67 1104.06 2211.67 1132.45C2211.67 1160.84 2188.68 1183.83 2160.28 1183.83C2131.89 1183.83 2108.9 1160.84 2108.9 1132.45Z" fill="#083643"/>
<path d="M2468.9 1029.68H2263.21V1235.37H2468.9V1029.68Z" fill="#FFFEFC"/>
<path d="M2263.21 1029.68C2376.77 1029.68 2468.9 1121.8 2468.9 1235.37H2263.21V1029.68Z" fill="#C3E04F"/>
<path d="M3291.81 1029.68H3086.12V1235.37H3291.81V1029.68Z" fill="#C3E04F"/>
<path d="M3291.81 1132.45C3291.81 1189.23 3245.83 1235.37 3188.89 1235.37C3131.95 1235.37 3086.12 1189.39 3086.12 1132.45C3086.12 1075.66 3132.1 1029.53 3189.04 1029.53C3245.98 1029.53 3291.81 1075.66 3291.81 1132.45Z" fill="#FFFEFC"/>
<path d="M3703.34 823.837H3291.81V1235.37H3703.34V823.837Z" fill="#C3E04F"/>
<path d="M3703.34 1029.68C3703.34 1143.25 3611.22 1235.37 3497.65 1235.37C3384.08 1235.37 3291.96 1143.25 3291.96 1029.68C3291.96 916.113 3384.08 823.992 3497.65 823.992C3611.22 823.992 3703.34 915.959 3703.34 1029.68Z" fill="#FFFEFC"/>
<path d="M3600.42 1029.68C3600.42 1086.47 3554.44 1132.6 3497.5 1132.6C3440.56 1132.6 3394.58 1086.62 3394.58 1029.68C3394.58 972.897 3440.56 926.76 3497.5 926.76C3554.44 926.76 3600.42 972.743 3600.42 1029.68Z" fill="#C3E04F"/>
<path d="M3291.81 823.837H3086.12V1029.53H3291.81V823.837Z" fill="#CEF09D"/>
<path d="M3703.34 618.147H3497.65V823.837H3703.34V618.147Z" fill="#FFFEFC"/>
<path d="M3703.34 721.07C3703.34 777.854 3657.36 823.992 3600.42 823.992C3543.48 823.992 3497.5 778.008 3497.5 721.07C3497.5 664.131 3543.48 618.147 3600.42 618.147C3657.36 618.147 3703.34 664.131 3703.34 721.07Z" fill="#77D9C9"/>
<path d="M3651.96 721.069C3651.96 749.462 3628.97 772.453 3600.58 772.453C3572.18 772.453 3549.19 749.462 3549.19 721.069C3549.19 692.677 3572.18 669.685 3600.58 669.685C3628.81 669.531 3651.96 692.677 3651.96 721.069Z" fill="#FFFEFC"/>
<path d="M3497.5 618.147H3291.81V823.837H3497.5V618.147Z" fill="#C3E04F"/>
<path d="M3497.65 618.147C3497.65 731.717 3405.53 823.837 3291.96 823.837V618.147H3497.65Z" fill="#77D9C9"/>
<path d="M3291.81 618.147H3086.12V823.837H3291.81V618.147Z" fill="#CEF09D"/>
<path d="M3291.81 823.837C3178.24 823.837 3086.12 731.717 3086.12 618.147H3291.81V823.837Z" fill="#FFFEFC"/>
<path d="M3291.81 412.458H3086.12V618.148H3291.81V412.458Z" fill="#083643"/>
<path d="M3240.42 515.226C3240.42 543.618 3217.43 566.61 3189.04 566.61C3160.65 566.61 3137.66 543.618 3137.66 515.226C3137.66 486.833 3160.65 463.842 3189.04 463.842C3217.43 463.842 3240.42 486.833 3240.42 515.226Z" fill="#C3E04F"/>
<path d="M2674.59 1029.68C2788.16 1029.68 2880.28 1121.8 2880.28 1235.37H2674.59V1029.68Z" fill="#CEF09D"/>
<path d="M3086.12 1029.68H2880.43V1235.37H3086.12V1029.68Z" fill="#FFFEFC"/>
<path d="M2880.43 1029.68C2994 1029.68 3086.12 1121.8 3086.12 1235.37H2880.43V1029.68Z" fill="#083643"/>
<path d="M3084.78 1029.68C3084.78 916.113 3176.9 823.992 3290.47 823.992V1029.68H3084.78Z" fill="#C3E04F"/>
<path d="M2468.9 721.07C2468.9 664.285 2514.88 618.147 2571.82 618.147C2628.76 618.147 2674.74 664.131 2674.74 721.07C2674.74 778.008 2628.76 823.992 2571.82 823.992C2514.88 823.992 2468.9 777.854 2468.9 721.07Z" fill="#CEF09D"/>
<path d="M2520.28 721.07C2520.28 692.678 2543.27 669.687 2571.66 669.687C2600.06 669.687 2623.05 692.678 2623.05 721.07C2623.05 749.463 2600.21 772.454 2571.82 772.454C2543.43 772.454 2520.28 749.463 2520.28 721.07Z" fill="#C3E04F"/>
<path d="M2468.9 1029.68C2582.46 1029.68 2674.59 1121.8 2674.59 1235.37H2468.9V1029.68Z" fill="#77D9C9"/>
<path d="M205.69 1235.37H0V1029.68H205.69V1235.37Z" fill="#C3E04F"/>
<path d="M0 1235.37C113.569 1235.37 205.69 1143.25 205.69 1029.68H0V1235.37Z" fill="#083643"/>
<path d="M411.38 1235.37H205.69V1029.68H411.38V1235.37Z" fill="#CEF09D"/>
<path d="M205.69 1235.37C319.413 1235.37 411.534 1143.25 411.534 1029.68H205.69V1235.37Z" fill="#77D9C9"/>
<path d="M617.224 1235.37H411.534V1029.68H617.224V1235.37Z" fill="#C3E04F"/>
<path d="M411.534 1132.45C411.534 1189.23 457.517 1235.37 514.456 1235.37C571.395 1235.37 617.224 1189.39 617.224 1132.45C617.224 1075.51 571.241 1029.53 514.302 1029.53C457.363 1029.53 411.534 1075.66 411.534 1132.45Z" fill="#FFFEFC"/>
<path d="M1028.76 1235.37H617.224V823.837H1028.76V1235.37Z" fill="#FFFEFC"/>
<path d="M720.146 1029.68C720.146 1086.47 766.129 1132.6 823.068 1132.6C880.007 1132.6 925.836 1086.47 925.836 1029.68C925.836 972.897 879.853 926.759 822.914 926.759C765.975 926.759 720.146 972.743 720.146 1029.68Z" fill="#77D9C9"/>
<path d="M1234.45 1235.37H1028.76V1029.68H1234.45V1235.37Z" fill="#77D9C9"/>
<path d="M1028.76 1029.68C1028.76 1143.25 1120.88 1235.37 1234.45 1235.37V1029.68H1028.76Z" fill="#C3E04F"/>
<path d="M205.69 1029.68H0V823.992H205.69V1029.68Z" fill="#083643"/>
<path d="M0 1029.68C113.569 1029.68 205.69 937.561 205.69 823.992H0V1029.68Z" fill="#C3E04F"/>
<path d="M411.38 1029.68H205.69V823.992H411.38V1029.68Z" fill="#C3E04F"/>
<path d="M205.69 926.76C205.69 983.544 251.673 1029.68 308.612 1029.68C365.551 1029.68 411.534 983.698 411.534 926.76C411.534 869.821 365.551 823.837 308.612 823.837C251.673 823.837 205.69 869.975 205.69 926.76Z" fill="#FFFEFC"/>
<path d="M257.228 926.759C257.228 955.151 280.22 978.143 308.612 978.143C337.004 978.143 359.996 955.151 359.996 926.759C359.996 898.366 337.004 875.375 308.612 875.375C280.22 875.375 257.228 898.366 257.228 926.759Z" fill="#C3E04F"/>
<path d="M617.224 1029.68H411.534V823.992H617.224V1029.68Z" fill="#083643"/>
<path d="M617.224 1029.68C617.224 916.112 525.103 823.992 411.534 823.992V1029.68H617.224Z" fill="#CEF09D"/>
<path d="M1234.45 1029.68H1028.76V823.992H1234.45V1029.68Z" fill="#FFFEFC"/>
<path d="M1028.76 823.837C1028.76 937.407 1120.88 1029.53 1234.45 1029.53V823.837H1028.76Z" fill="#083643"/>
<path d="M205.69 823.837H0V618.147H205.69V823.837Z" fill="#FFFEFC"/>
<path d="M0 721.069C0 777.854 45.9832 823.991 102.922 823.991C159.861 823.991 205.844 778.008 205.844 721.069C205.844 664.13 159.707 618.147 102.922 618.147C46.1375 618.147 0 664.13 0 721.069Z" fill="#77D9C9"/>
<path d="M51.3838 721.069C51.3838 749.462 74.3754 772.453 102.768 772.453C131.16 772.453 154.152 749.462 154.152 721.069C154.152 692.677 131.16 669.685 102.768 669.685C74.3754 669.685 51.3838 692.677 51.3838 721.069Z" fill="#FFFEFC"/>
<path d="M411.38 823.837H205.69V618.147H411.38V823.837Z" fill="#C3E04F"/>
<path d="M205.69 618.147C205.69 731.716 297.811 823.837 411.38 823.837V618.147H205.69Z" fill="#77D9C9"/>
<path d="M617.224 823.837H411.534V618.147H617.224V823.837Z" fill="#CEF09D"/>
<path d="M411.534 823.837C525.103 823.837 617.224 731.716 617.224 618.147H411.534V823.837Z" fill="#FFFEFC"/>
<path d="M822.914 823.837H617.224V618.147H822.914V823.837Z" fill="#C3E04F"/>
<path d="M822.914 618.147C709.345 618.147 617.224 710.268 617.224 823.837H822.914V618.147Z" fill="#CEF09D"/>
<path d="M1028.6 823.837H822.914V618.147H1028.6V823.837Z" fill="#083643"/>
<path d="M822.914 618.147C822.914 731.716 915.034 823.837 1028.6 823.837V618.147H822.914Z" fill="#FFFEFC"/>
<path d="M1234.45 823.837H1028.76V618.147H1234.45V823.837Z" fill="#CEF09D"/>
<path d="M1234.45 823.837C1234.45 710.268 1142.33 618.147 1028.76 618.147V823.837H1234.45Z" fill="#C3E04F"/>
<path d="M411.534 618.147H0V206.613H411.534V618.147Z" fill="#FFFEFC"/>
<path d="M617.224 618.147H411.534V412.458H617.224V618.147Z" fill="#083643"/>
<path d="M462.918 515.225C462.918 543.618 485.91 566.609 514.302 566.609C542.694 566.609 565.686 543.618 565.686 515.225C565.686 486.833 542.694 463.842 514.302 463.842C485.91 463.842 462.918 486.833 462.918 515.225Z" fill="#C3E04F"/>
<path d="M1234.45 618.147H1028.76V412.458H1234.45V618.147Z" fill="#FFFEFC"/>
<path d="M1028.76 515.225C1028.76 572.01 1074.74 618.147 1131.68 618.147C1188.62 618.147 1234.6 572.164 1234.6 515.225C1234.6 458.286 1188.62 412.303 1131.68 412.303C1074.74 412.303 1028.76 458.441 1028.76 515.225Z" fill="#C3E04F"/>
<path d="M822.914 412.457H617.224V206.767H822.914V412.457Z" fill="#FFFEFC"/>
<path d="M1748.75 206.613C1748.75 149.828 1702.77 103.691 1645.83 103.691C1588.89 103.691 1542.91 149.674 1542.91 206.613C1542.91 263.398 1588.89 309.535 1645.83 309.535C1702.77 309.535 1748.75 263.552 1748.75 206.613Z" fill="#C3E04F"/>
<path d="M1440.14 412.457H1234.45V206.767H1440.14V412.457Z" fill="#CEF09D"/>
<path d="M1851.67 515.225C1851.67 458.441 1805.69 412.303 1748.75 412.303C1691.81 412.303 1645.83 458.286 1645.83 515.225C1645.83 572.164 1691.81 618.147 1748.75 618.147C1805.69 618.147 1851.67 572.164 1851.67 515.225Z" fill="#77D9C9"/>
<path d="M1800.29 515.226C1800.29 486.833 1777.3 463.842 1748.9 463.842C1720.51 463.842 1697.52 486.833 1697.52 515.226C1697.52 543.618 1720.51 566.61 1748.9 566.61C1777.14 566.764 1800.29 543.618 1800.29 515.226Z" fill="#FFFEFC"/>
<path d="M1645.83 618.147H1440.14V412.458H1645.83V618.147Z" fill="#C3E04F"/>
<path d="M1645.98 618.147C1645.98 504.578 1553.86 412.458 1440.29 412.458V618.147H1645.98Z" fill="#77D9C9"/>
<path d="M1440.14 618.147H1234.45V412.458H1440.14V618.147Z" fill="#CEF09D"/>
<path d="M1440.14 412.458C1326.57 412.458 1234.45 504.578 1234.45 618.147H1440.14V412.458Z" fill="#FFFEFC"/>
<path d="M1851.67 1029.68H1440.14V618.148H1851.67V1029.68Z" fill="#C3E04F"/>
<path d="M1440.14 618.148C1440.14 845.44 1624.38 1029.68 1851.67 1029.68V618.148H1440.14Z" fill="#083643"/>
<path d="M1440.14 823.837H1234.45V618.147H1440.14V823.837Z" fill="#083643"/>
<path d="M1388.75 721.069C1388.75 692.677 1365.76 669.685 1337.37 669.685C1308.98 669.685 1285.99 692.677 1285.99 721.069C1285.99 749.462 1308.98 772.453 1337.37 772.453C1365.76 772.453 1388.75 749.462 1388.75 721.069Z" fill="#C3E04F"/>
<path d="M1440.14 1029.68H1234.45V823.992H1440.14V1029.68Z" fill="#C3E04F"/>
<path d="M1234.45 823.837C1234.45 937.407 1326.57 1029.53 1440.14 1029.53V823.837H1234.45Z" fill="#CEF09D"/>
<path d="M1851.67 1235.37H1645.98V1029.68H1851.67V1235.37Z" fill="#C3E04F"/>
<path d="M1800.29 1132.45C1800.29 1104.06 1777.3 1081.07 1748.9 1081.07C1720.51 1081.07 1697.52 1104.06 1697.52 1132.45C1697.52 1160.84 1720.51 1183.83 1748.9 1183.83C1777.14 1183.99 1800.29 1160.84 1800.29 1132.45Z" fill="#083643"/>
<path d="M1645.83 1235.37H1440.14V1029.68H1645.83V1235.37Z" fill="#C3E04F"/>
<path d="M1645.98 1132.45C1645.98 1075.66 1600 1029.53 1543.06 1029.53C1486.12 1029.53 1440.14 1075.51 1440.14 1132.45C1440.14 1189.39 1486.28 1235.37 1543.06 1235.37C1599.84 1235.37 1645.98 1189.39 1645.98 1132.45Z" fill="#77D9C9"/>
<path d="M1594.44 1132.45C1594.44 1104.06 1571.45 1081.07 1543.06 1081.07C1514.67 1081.07 1491.68 1104.06 1491.68 1132.45C1491.68 1160.84 1514.67 1183.83 1543.06 1183.83C1571.45 1183.83 1594.44 1160.84 1594.44 1132.45Z" fill="#C3E04F"/>
<path d="M1440.14 1235.37H1234.45V1029.68H1440.14V1235.37Z" fill="#FFFEFC"/>
<path d="M1028.6 206.613H822.914V0.923431H1028.6V206.613Z" fill="#FFFEFC"/>
</svg>
