<svg width="5811" height="1184" viewBox="0 0 5811 1184" fill="none" xmlns="http://www.w3.org/2000/svg">
<path d="M2152.17 1183.48H1937V968.285H2152.17V1183.48Z" fill="#BFADA3"/>
<path d="M1937 968.285C1937 1087.1 2033.37 1183.48 2152.17 1183.48V968.285H1937Z" fill="#262626"/>
<path d="M2582.67 1183.48H2152.17V752.923H2582.67V1183.48Z" fill="#BFADA3"/>
<path d="M2797.83 1183.48H2582.67V968.283H2797.83V1183.48Z" fill="#EC2F28"/>
<path d="M2636.42 1075.8C2636.42 1105.51 2660.47 1129.56 2690.17 1129.56C2719.87 1129.56 2744.08 1105.51 2744.08 1075.8C2744.08 1046.1 2720.03 1022.04 2690.33 1022.04C2660.63 1022.04 2636.42 1046.1 2636.42 1075.8Z" fill="#BFADA3"/>
<path d="M3013 1183.48H2797.84V968.283H3013V1183.48Z" fill="#BFADA3"/>
<path d="M2797.84 968.283C2797.84 1087.1 2894.2 1183.48 3013.17 1183.48V968.283H2797.84Z" fill="#D2D6D9"/>
<path d="M3228.33 1183.48H3013.16V968.283H3228.33V1183.48Z" fill="#D2D6D9"/>
<path d="M3013.16 1075.8C3013.16 1135.21 3061.27 1183.48 3120.83 1183.48C3180.39 1183.48 3228.33 1135.37 3228.33 1075.8C3228.33 1016.23 3180.23 968.122 3120.67 968.122C3061.11 968.122 3013.16 1016.39 3013.16 1075.8Z" fill="#F0F0F2"/>
<path d="M2152.17 968.285H1937V753.086H2152.17V968.285Z" fill="#EC2F28"/>
<path d="M1990.75 860.604C1990.75 890.309 2014.8 914.363 2044.5 914.363C2074.2 914.363 2098.42 890.309 2098.42 860.604C2098.42 830.899 2074.37 806.844 2044.66 806.844C2014.96 806.844 1990.75 830.899 1990.75 860.604Z" fill="#262626"/>
<path d="M2797.83 968.285H2582.67V753.086H2797.83V968.285Z" fill="#EC2F28"/>
<path d="M2582.67 752.924C2582.67 871.744 2679.03 968.123 2797.83 968.123V752.924H2582.67Z" fill="#262626"/>
<path d="M3013 968.285H2797.84V753.086H3013V968.285Z" fill="#EC2F28"/>
<path d="M3013.16 752.924C2894.36 752.924 2798 849.303 2798 968.123H3013.16V752.924Z" fill="#F0F0F2"/>
<path d="M3228.33 968.285H3013.16V753.086H3228.33V968.285Z" fill="#F0F0F2"/>
<path d="M3013.16 752.924C3013.16 871.744 3109.53 968.123 3228.33 968.123V752.924H3013.16Z" fill="#F0F0F2"/>
<path d="M2367.34 752.925H2152.17V537.726H2367.34V752.925Z" fill="#EC2F28"/>
<path d="M2152.17 645.407C2152.17 704.816 2200.27 753.087 2259.83 753.087C2319.4 753.087 2367.5 704.978 2367.5 645.407C2367.5 585.835 2319.23 537.726 2259.83 537.726C2200.43 537.726 2152.17 585.835 2152.17 645.407Z" fill="#F0F0F2"/>
<path d="M2582.67 752.925H2367.5V537.726H2582.67V752.925Z" fill="#F0F0F2"/>
<path d="M2797.83 752.925C2797.83 634.105 2701.47 537.726 2582.67 537.726V752.925H2797.83Z" fill="#262626"/>
<path d="M3013.16 537.726C2894.36 537.726 2798 634.105 2798 752.925H3013.16V537.726Z" fill="#EC2F28"/>
<path d="M3228.33 752.925H3013.16V537.726H3228.33V752.925Z" fill="#D2D6D9"/>
<path d="M3066.92 645.406C3066.92 675.111 3090.97 699.165 3120.67 699.165C3150.37 699.165 3174.42 675.111 3174.42 645.406C3174.42 615.701 3150.37 591.646 3120.67 591.646C3090.97 591.485 3066.92 615.701 3066.92 645.406Z" fill="#EC2F28"/>
<path d="M2152.17 430.044C2152.17 489.454 2200.27 537.725 2259.83 537.725C2319.4 537.725 2367.5 489.616 2367.5 430.044C2367.5 370.473 2319.4 322.364 2259.83 322.364C2200.27 322.364 2152.17 370.635 2152.17 430.044Z" fill="#D2D6D9"/>
<path d="M2582.67 430.044C2582.67 489.454 2630.77 537.725 2690.33 537.725C2749.89 537.725 2798 489.616 2798 430.044C2798 370.473 2749.89 322.364 2690.33 322.364C2630.77 322.364 2582.67 370.635 2582.67 430.044Z" fill="#F0F0F2"/>
<path d="M3228.33 537.725C3228.33 418.905 3131.97 322.526 3013.16 322.526V537.725H3228.33Z" fill="#D2D6D9"/>
<path d="M3766.33 537.725C3766.33 478.315 3718.23 430.045 3658.67 430.045C3599.11 430.045 3551.16 478.315 3551.16 537.725C3551.16 597.135 3599.27 645.405 3658.83 645.405C3718.39 645.405 3766.33 597.135 3766.33 537.725Z" fill="#EC2F28"/>
<path d="M3443.5 752.925H3228.33V537.726H3443.5V752.925Z" fill="#262626"/>
<path d="M3443.5 645.407C3443.5 585.997 3395.4 537.726 3335.84 537.726C3276.28 537.726 3228.33 585.835 3228.33 645.407C3228.33 704.978 3276.44 753.087 3336 753.087C3395.56 753.087 3443.5 704.816 3443.5 645.407Z" fill="#F0F0F2"/>
<path d="M3874 860.605C3874 801.195 3825.9 752.925 3766.34 752.925C3706.77 752.925 3658.67 801.034 3658.67 860.605C3658.67 920.176 3706.77 968.285 3766.34 968.285C3825.9 968.285 3874 920.015 3874 860.605Z" fill="#EC2F28"/>
<path d="M3658.67 968.285H3443.5V753.086H3658.67V968.285Z" fill="#EC2F28"/>
<path d="M3604.92 860.604C3604.92 830.899 3580.87 806.844 3551.17 806.844C3521.47 806.844 3497.42 830.899 3497.42 860.604C3497.42 890.309 3521.47 914.363 3551.17 914.363C3580.87 914.363 3604.92 890.309 3604.92 860.604Z" fill="#D2D6D9"/>
<path d="M3443.5 968.285H3228.33V753.086H3443.5V968.285Z" fill="#BFADA3"/>
<path d="M3874 1183.48H3658.83V968.283H3874V1183.48Z" fill="#F0F0F2"/>
<path d="M3658.83 968.283C3658.83 1087.1 3755.2 1183.48 3874 1183.48V968.283H3658.83Z" fill="#262626"/>
<path d="M3658.67 1183.48H3443.5V968.283H3658.67V1183.48Z" fill="#F0F0F2"/>
<path d="M3604.92 1075.8C3604.92 1046.1 3580.87 1022.04 3551.17 1022.04C3521.47 1022.04 3497.42 1046.1 3497.42 1075.8C3497.42 1105.51 3521.47 1129.56 3551.17 1129.56C3580.87 1129.56 3604.92 1105.51 3604.92 1075.8Z" fill="#EC2F28"/>
<path d="M3443.5 1183.48H3228.33V968.283H3443.5V1183.48Z" fill="#D2D6D9"/>
<path d="M2206.08 645.406C2206.08 675.111 2230.13 699.165 2259.83 699.165C2289.53 699.165 2313.58 675.111 2313.58 645.406C2313.58 615.701 2289.53 591.646 2259.83 591.646C2230.13 591.646 2206.08 615.701 2206.08 645.406Z" fill="#262626"/>
<path d="M2152.17 968.283C2152.17 1087.1 2248.53 1183.48 2367.5 1183.48C2486.46 1183.48 2582.67 1087.1 2582.67 968.283C2582.67 849.464 2486.3 753.084 2367.5 753.084C2248.7 753.084 2152.17 849.302 2152.17 968.283Z" fill="#F0F0F2"/>
<path d="M2259.83 968.285C2259.83 1027.69 2307.93 1075.96 2367.5 1075.96C2427.06 1075.96 2475.16 1027.86 2475.16 968.285C2475.16 908.713 2426.9 860.604 2367.5 860.604C2308.1 860.604 2259.83 908.713 2259.83 968.285Z" fill="#262626"/>
<path d="M3228.33 1183.48C3347.14 1183.48 3443.5 1087.1 3443.5 968.283H3228.33V1183.48Z" fill="#BFADA3"/>
<path d="M2367.5 645.407C2367.5 704.816 2415.6 753.087 2475.16 753.087C2534.73 753.087 2582.83 704.978 2582.83 645.407C2582.83 585.835 2534.56 537.726 2475 537.726C2415.44 537.726 2367.5 585.835 2367.5 645.407Z" fill="#EC2F28"/>
<path d="M3927.75 215.361C3927.75 185.656 3951.8 161.602 3981.5 161.602C4011.2 161.602 4035.42 185.656 4035.42 215.361C4035.42 245.066 4011.36 269.12 3981.66 269.12C3951.96 269.12 3927.75 245.066 3927.75 215.361Z" fill="#262626"/>
<path d="M4519.67 323.042C4519.67 204.222 4616.03 107.843 4734.83 107.843V323.042H4519.67Z" fill="#262626"/>
<path d="M4089.17 323.042H3874V538.241H4089.17V323.042Z" fill="#EC2F28"/>
<path d="M3874 323.042C3992.8 323.042 4089.17 419.421 4089.17 538.241H3874V323.042Z" fill="#262626"/>
<path d="M4304.34 323.042H4089.17V538.241H4304.34V323.042Z" fill="#EC2F28"/>
<path d="M4089.17 430.558C4089.17 371.148 4137.27 322.878 4196.83 322.878C4256.4 322.878 4304.5 370.987 4304.5 430.558C4304.5 490.129 4256.23 538.238 4196.83 538.238C4137.43 538.238 4089.17 490.129 4089.17 430.558Z" fill="#F0F0F2"/>
<path d="M4519.67 323.042H4304.5V538.241H4519.67V323.042Z" fill="#F0F0F2"/>
<path d="M4304.5 430.558C4304.5 371.148 4352.6 322.878 4412.16 322.878C4471.73 322.878 4519.83 370.987 4519.83 430.558C4519.83 490.129 4471.57 538.238 4412 538.238C4352.44 538.238 4304.5 490.129 4304.5 430.558Z" fill="#EC2F28"/>
<path d="M4734.83 323.042H4519.67V538.241H4734.83V323.042Z" fill="#BFADA3"/>
<path d="M4734.83 323.042C4734.83 441.862 4638.47 538.241 4519.67 538.241V323.042H4734.83Z" fill="#262626"/>
<path d="M4950 323.042H4734.84V538.241H4950V323.042Z" fill="#BFADA3"/>
<path d="M4950.16 538.241C4831.36 538.241 4735 441.862 4735 323.042H4950.16V538.241Z" fill="#EC2F28"/>
<path d="M5003.92 430.56C5003.92 400.855 5027.97 376.801 5057.67 376.801C5087.37 376.801 5111.42 400.855 5111.42 430.56C5111.42 460.265 5087.37 484.32 5057.67 484.32C5027.97 484.481 5003.92 460.265 5003.92 430.56Z" fill="#EC2F28"/>
<path d="M4089.17 538.24H3874V753.439H4089.17V538.24Z" fill="#BFADA3"/>
<path d="M4089.17 538.24C4089.17 657.06 3992.8 753.439 3874 753.439V538.24H4089.17Z" fill="#D2D6D9"/>
<path d="M4304.34 538.24H4089.17V753.439H4304.34V538.24Z" fill="#BFADA3"/>
<path d="M4089.17 645.92C4089.17 586.511 4137.27 538.24 4196.83 538.24C4256.4 538.24 4304.5 586.349 4304.5 645.92C4304.5 705.492 4256.4 753.601 4196.83 753.601C4137.27 753.601 4089.17 705.33 4089.17 645.92Z" fill="#D2D6D9"/>
<path d="M4519.67 538.24H4304.5V753.439H4519.67V538.24Z" fill="#F0F0F2"/>
<path d="M4358.25 645.921C4358.25 616.216 4382.3 592.161 4412 592.161C4441.7 592.161 4465.75 616.216 4465.75 645.921C4465.75 675.625 4441.7 699.68 4412 699.68C4382.3 699.68 4358.25 675.625 4358.25 645.921Z" fill="#D2D6D9"/>
<path d="M4734.83 538.24H4519.67V753.439H4734.83V538.24Z" fill="#262626"/>
<path d="M4519.67 645.92C4519.67 586.511 4567.77 538.24 4627.33 538.24C4686.89 538.24 4735 586.349 4735 645.92C4735 705.492 4686.89 753.601 4627.33 753.601C4567.77 753.601 4519.67 705.33 4519.67 645.92Z" fill="#F0F0F2"/>
<path d="M4950 538.24H4734.84V753.439H4950V538.24Z" fill="#BFADA3"/>
<path d="M4788.75 645.921C4788.75 616.216 4812.8 592.161 4842.5 592.161C4872.2 592.161 4896.25 616.216 4896.25 645.921C4896.25 675.625 4872.2 699.68 4842.5 699.68C4812.8 699.68 4788.75 675.625 4788.75 645.921Z" fill="#EC2F28"/>
<path d="M5165.33 538.24H4950.16V753.439H5165.33V538.24Z" fill="#262626"/>
<path d="M5165.33 538.24C5165.33 657.06 5068.97 753.439 4950.16 753.439V538.24H5165.33Z" fill="#D2D6D9"/>
<path d="M4089.17 753.439H3874V968.638H4089.17V753.439Z" fill="#D2D6D9"/>
<path d="M3874 861.12C3874 801.71 3922.1 753.439 3981.67 753.439C4041.23 753.439 4089.33 801.548 4089.33 861.12C4089.33 920.691 4041.23 968.8 3981.67 968.8C3922.1 968.8 3874 920.53 3874 861.12Z" fill="#BFADA3"/>
<path d="M4304.34 753.439H4089.17V968.638H4304.34V753.439Z" fill="#BFADA3"/>
<path d="M4089.17 861.12C4089.17 801.71 4137.27 753.439 4196.83 753.439C4256.4 753.439 4304.5 801.548 4304.5 861.12C4304.5 920.691 4256.4 968.8 4196.83 968.8C4137.27 968.8 4089.17 920.53 4089.17 861.12Z" fill="#262626"/>
<path d="M4143.08 861.119C4143.08 831.414 4167.13 807.359 4196.83 807.359C4226.53 807.359 4250.58 831.414 4250.58 861.119C4250.58 890.824 4226.53 914.878 4196.83 914.878C4167.13 914.878 4143.08 890.824 4143.08 861.119Z" fill="#BFADA3"/>
<path d="M4950 753.439H4734.84V968.638H4950V753.439Z" fill="#D2D6D9"/>
<path d="M4950.16 753.439C4950.16 872.259 4853.8 968.638 4735 968.638V753.439H4950.16Z" fill="#BFADA3"/>
<path d="M5165.33 753.439H4950.16V968.638H5165.33V753.439Z" fill="#BFADA3"/>
<path d="M4950.16 968.801C4950.16 849.981 5046.53 753.602 5165.33 753.602V968.801H4950.16Z" fill="#EC2F28"/>
<path d="M4089.17 968.801H3874V1184H4089.17V968.801Z" fill="#EC2F28"/>
<path d="M3927.75 1076.32C3927.75 1046.61 3951.8 1022.56 3981.5 1022.56C4011.2 1022.56 4035.25 1046.61 4035.25 1076.32C4035.25 1106.02 4011.2 1130.08 3981.5 1130.08C3951.8 1130.08 3927.75 1106.02 3927.75 1076.32Z" fill="#D2D6D9"/>
<path d="M4304.34 968.801H4089.17V1184H4304.34V968.801Z" fill="#262626"/>
<path d="M4304.5 968.801C4304.5 1087.62 4208.13 1184 4089.33 1184V968.801H4304.5Z" fill="#EC2F28"/>
<path d="M4735 753.439H4304.5V1184H4735V753.439Z" fill="#D2D6D9"/>
<path d="M4734.83 1184C4497.07 1184 4304.34 991.24 4304.34 753.439H4734.83V1184Z" fill="#BFADA3"/>
<path d="M5811 968.801H5595.83V1184H5811V968.801Z" fill="#BFADA3"/>
<path d="M5811 1076.32C5811 1135.73 5762.9 1184 5703.33 1184C5643.77 1184 5595.67 1135.89 5595.67 1076.32C5595.67 1016.91 5643.77 968.639 5703.33 968.639C5762.9 968.639 5811 1016.91 5811 1076.32Z" fill="#F0F0F2"/>
<path d="M5595.67 968.801H5380.5V1184H5595.67V968.801Z" fill="#262626"/>
<path d="M5595.83 1184C5477.03 1184 5380.66 1087.62 5380.66 968.801H5595.83V1184Z" fill="#BFADA3"/>
<path d="M5380.5 968.801H5165.33V1184H5380.5V968.801Z" fill="#EC2F28"/>
<path d="M5326.75 1076.32C5326.75 1106.02 5302.7 1130.08 5273 1130.08C5243.3 1130.08 5219.24 1106.02 5219.24 1076.32C5219.24 1046.61 5243.3 1022.56 5273 1022.56C5302.7 1022.56 5326.75 1046.61 5326.75 1076.32Z" fill="#BFADA3"/>
<path d="M5811 753.439H5595.83V968.638H5811V753.439Z" fill="#262626"/>
<path d="M5595.83 968.801C5595.83 849.981 5692.2 753.602 5811 753.602V968.801H5595.83Z" fill="#D2D6D9"/>
<path d="M5595.67 753.439H5380.5V968.638H5595.67V753.439Z" fill="#F0F0F2"/>
<path d="M5595.83 753.439C5595.83 872.259 5499.46 968.638 5380.66 968.638V753.439H5595.83Z" fill="#BFADA3"/>
<path d="M5380.5 753.439H5165.33V968.638H5380.5V753.439Z" fill="#D2D6D9"/>
<path d="M5380.5 753.439C5380.5 872.259 5284.14 968.638 5165.33 968.638V753.439H5380.5Z" fill="#262626"/>
<path d="M5380.5 538.24H5165.33V753.439H5380.5V538.24Z" fill="#BFADA3"/>
<path d="M5165.33 753.439C5165.33 634.62 5261.7 538.24 5380.5 538.24V753.439H5165.33Z" fill="#262626"/>
<path d="M5703.33 538.24C5703.33 597.65 5655.23 645.92 5595.67 645.92C5536.11 645.92 5488.17 597.65 5488.17 538.24C5488.17 478.83 5536.27 430.56 5595.83 430.56C5655.39 430.56 5703.33 478.83 5703.33 538.24Z" fill="#EC2F28"/>
<path d="M4950 968.801H4734.84V1184H4950V968.801Z" fill="#F0F0F2"/>
<path d="M5165.33 968.801H4950.16V1184H5165.33V968.801Z" fill="#F0F0F2"/>
<path d="M5165.33 968.801C5165.33 1087.62 5068.97 1184 4950.16 1184V968.801H5165.33Z" fill="#EC2F28"/>
<path d="M4950.17 1076.32C4950.17 1135.73 4902.06 1184 4842.5 1184C4782.94 1184 4734.84 1135.89 4734.84 1076.32C4734.84 1016.91 4782.94 968.639 4842.5 968.639C4902.06 968.639 4950.17 1016.91 4950.17 1076.32Z" fill="#262626"/>
<path d="M4143.08 430.56C4143.08 400.855 4167.13 376.801 4196.83 376.801C4226.53 376.801 4250.58 400.855 4250.58 430.56C4250.58 460.265 4226.53 484.32 4196.83 484.32C4167.13 484.32 4143.08 460.265 4143.08 430.56Z" fill="#262626"/>
<path d="M4196.83 107.68C4196.83 48.2705 4244.93 0 4304.5 0C4364.06 0 4412.16 48.109 4412.16 107.68C4412.16 167.251 4363.9 215.36 4304.5 215.36C4245.1 215.36 4196.83 167.251 4196.83 107.68Z" fill="#262626"/>
<path d="M53.7514 215.361C53.7514 185.656 77.8025 161.602 107.503 161.602C137.204 161.602 161.416 185.656 161.416 215.361C161.416 245.066 137.365 269.12 107.665 269.12C77.9639 269.12 53.7514 245.066 53.7514 215.361Z" fill="#262626"/>
<path d="M860.835 107.681H645.666V322.88H860.835V107.681Z" fill="#D2D6D9"/>
<path d="M645.666 323.042C645.666 204.222 742.032 107.843 860.835 107.843V323.042H645.666Z" fill="#262626"/>
<path d="M430.337 323.04H215.168V538.239H430.337V323.04Z" fill="#EC2F28"/>
<path d="M215.168 430.56C215.168 371.15 263.27 322.88 322.833 322.88C382.396 322.88 430.498 370.989 430.498 430.56C430.498 490.131 382.234 538.24 322.833 538.24C263.432 538.24 215.168 490.131 215.168 430.56Z" fill="#F0F0F2"/>
<path d="M645.666 323.04H430.498V538.239H645.666V323.04Z" fill="#F0F0F2"/>
<path d="M430.498 430.56C430.498 371.15 478.6 322.88 538.163 322.88C597.726 322.88 645.828 370.989 645.828 430.56C645.828 490.131 597.564 538.24 538.002 538.24C478.439 538.24 430.498 490.131 430.498 430.56Z" fill="#EC2F28"/>
<path d="M860.835 323.04C860.835 441.86 764.469 538.239 645.666 538.239V323.04H860.835Z" fill="#262626"/>
<path d="M1291.33 323.04H1076.17V538.239H1291.33V323.04Z" fill="#D2D6D9"/>
<path d="M1129.92 430.56C1129.92 400.855 1153.97 376.801 1183.67 376.801C1213.37 376.801 1237.42 400.855 1237.42 430.56C1237.42 460.265 1213.37 484.32 1183.67 484.32C1153.97 484.481 1129.92 460.265 1129.92 430.56Z" fill="#EC2F28"/>
<path d="M215.168 538.24H6.10352e-05V753.439H215.168V538.24Z" fill="#BFADA3"/>
<path d="M215.168 538.24C215.168 657.06 118.803 753.439 6.10352e-05 753.439V538.24H215.168Z" fill="#D2D6D9"/>
<path d="M430.337 538.24H215.168V753.439H430.337V538.24Z" fill="#BFADA3"/>
<path d="M215.168 645.92C215.168 586.511 263.27 538.24 322.833 538.24C382.396 538.24 430.498 586.349 430.498 645.92C430.498 705.492 382.396 753.601 322.833 753.601C263.27 753.601 215.168 705.33 215.168 645.92Z" fill="#D2D6D9"/>
<path d="M645.666 538.24H430.498V753.439H645.666V538.24Z" fill="#F0F0F2"/>
<path d="M484.25 645.921C484.25 616.216 508.301 592.161 538.001 592.161C567.702 592.161 591.753 616.216 591.753 645.921C591.753 675.625 567.702 699.68 538.001 699.68C508.301 699.68 484.25 675.625 484.25 645.921Z" fill="#D2D6D9"/>
<path d="M860.835 538.24H645.666V753.439H860.835V538.24Z" fill="#262626"/>
<path d="M645.666 645.92C645.666 586.511 693.769 538.24 753.331 538.24C812.894 538.24 860.996 586.349 860.996 645.92C860.996 705.492 812.894 753.601 753.331 753.601C693.769 753.601 645.666 705.33 645.666 645.92Z" fill="#F0F0F2"/>
<path d="M1076 538.24H860.835V753.439H1076V538.24Z" fill="#BFADA3"/>
<path d="M914.748 645.921C914.748 616.216 938.799 592.161 968.5 592.161C998.2 592.161 1022.25 616.216 1022.25 645.921C1022.25 675.625 998.2 699.68 968.5 699.68C938.799 699.68 914.748 675.625 914.748 645.921Z" fill="#EC2F28"/>
<path d="M1291.33 538.24H1076.17V753.439H1291.33V538.24Z" fill="#262626"/>
<path d="M1291.33 538.24C1291.33 657.06 1194.97 753.439 1076.17 753.439V538.24H1291.33Z" fill="#D2D6D9"/>
<path d="M215.168 753.439H6.10352e-05V968.638H215.168V753.439Z" fill="#D2D6D9"/>
<path d="M6.10352e-05 861.12C6.10352e-05 801.71 48.1022 753.439 107.665 753.439C167.228 753.439 215.33 801.548 215.33 861.12C215.33 920.691 167.228 968.8 107.665 968.8C48.1022 968.8 6.10352e-05 920.53 6.10352e-05 861.12Z" fill="#BFADA3"/>
<path d="M430.337 753.439H215.168V968.638H430.337V753.439Z" fill="#BFADA3"/>
<path d="M215.168 861.12C215.168 801.71 263.27 753.439 322.833 753.439C382.396 753.439 430.498 801.548 430.498 861.12C430.498 920.691 382.396 968.8 322.833 968.8C263.27 968.8 215.168 920.53 215.168 861.12Z" fill="#262626"/>
<path d="M269.081 861.119C269.081 831.414 293.132 807.359 322.833 807.359C352.534 807.359 376.585 831.414 376.585 861.119C376.585 890.824 352.534 914.878 322.833 914.878C293.132 914.878 269.081 890.824 269.081 861.119Z" fill="#BFADA3"/>
<path d="M1076 753.439H860.835V968.638H1076V753.439Z" fill="#D2D6D9"/>
<path d="M1076.16 753.439C1076.16 872.259 979.799 968.638 860.997 968.638V753.439H1076.16Z" fill="#BFADA3"/>
<path d="M1291.33 753.439H1076.17V968.638H1291.33V753.439Z" fill="#BFADA3"/>
<path d="M1076.17 968.8C1076.17 849.98 1172.53 753.601 1291.33 753.601V968.8H1076.17Z" fill="#EC2F28"/>
<path d="M215.168 968.801H6.10352e-05V1184H215.168V968.801Z" fill="#EC2F28"/>
<path d="M53.7514 1076.32C53.7514 1046.61 77.8025 1022.56 107.503 1022.56C137.204 1022.56 161.255 1046.61 161.255 1076.32C161.255 1106.02 137.204 1130.08 107.503 1130.08C77.8025 1130.08 53.7514 1106.02 53.7514 1076.32Z" fill="#D2D6D9"/>
<path d="M430.337 968.801H215.168V1184H430.337V968.801Z" fill="#262626"/>
<path d="M430.498 968.801C430.498 1087.62 334.133 1184 215.33 1184V968.801H430.498Z" fill="#EC2F28"/>
<path d="M860.996 753.439H430.498V1184H860.996V753.439Z" fill="#D2D6D9"/>
<path d="M860.835 1184C623.068 1184 430.337 991.24 430.337 753.439H860.835V1184Z" fill="#BFADA3"/>
<path d="M1937 968.801H1721.83V1184H1937V968.801Z" fill="#BFADA3"/>
<path d="M1937 1076.32C1937 1135.73 1888.9 1184 1829.34 1184C1769.77 1184 1721.67 1135.89 1721.67 1076.32C1721.67 1016.91 1769.77 968.639 1829.34 968.639C1888.9 968.639 1937 1016.91 1937 1076.32Z" fill="#F0F0F2"/>
<path d="M1721.67 968.801H1506.5V1184H1721.67V968.801Z" fill="#262626"/>
<path d="M1721.83 1184C1603.03 1184 1506.66 1087.62 1506.66 968.801H1721.83V1184Z" fill="#BFADA3"/>
<path d="M1506.5 968.801H1291.33V1184H1506.5V968.801Z" fill="#EC2F28"/>
<path d="M1452.75 1076.32C1452.75 1106.02 1428.7 1130.08 1399 1130.08C1369.3 1130.08 1345.25 1106.02 1345.25 1076.32C1345.25 1046.61 1369.3 1022.56 1399 1022.56C1428.7 1022.56 1452.75 1046.61 1452.75 1076.32Z" fill="#BFADA3"/>
<path d="M1937 753.439H1721.83V968.638H1937V753.439Z" fill="#262626"/>
<path d="M1721.83 968.8C1721.83 849.98 1818.2 753.601 1937 753.601V968.8H1721.83Z" fill="#D2D6D9"/>
<path d="M1721.67 753.439H1506.5V968.638H1721.67V753.439Z" fill="#F0F0F2"/>
<path d="M1721.83 753.439C1721.83 872.259 1625.47 968.638 1506.66 968.638V753.439H1721.83Z" fill="#BFADA3"/>
<path d="M1506.5 753.439H1291.33V968.638H1506.5V753.439Z" fill="#D2D6D9"/>
<path d="M1506.5 753.439C1506.5 872.259 1410.14 968.638 1291.33 968.638V753.439H1506.5Z" fill="#262626"/>
<path d="M1506.5 538.24H1291.33V753.439H1506.5V538.24Z" fill="#BFADA3"/>
<path d="M1291.33 753.439C1291.33 634.62 1387.7 538.24 1506.5 538.24V753.439H1291.33Z" fill="#262626"/>
<path d="M1937 323.04H1506.5V753.6H1937V323.04Z" fill="#BFADA3"/>
<path d="M1829.33 538.24C1829.33 597.65 1781.23 645.92 1721.67 645.92C1662.11 645.92 1614.17 597.65 1614.17 538.24C1614.17 478.83 1662.27 430.56 1721.83 430.56C1781.39 430.56 1829.33 478.83 1829.33 538.24Z" fill="#EC2F28"/>
<path d="M1506.5 323.04H1291.33V538.239H1506.5V323.04Z" fill="#262626"/>
<path d="M1506.5 430.56C1506.5 489.97 1458.4 538.24 1398.84 538.24C1339.27 538.24 1291.33 490.131 1291.33 430.56C1291.33 370.989 1339.44 322.88 1399 322.88C1458.56 322.88 1506.5 371.15 1506.5 430.56Z" fill="#F0F0F2"/>
<path d="M1937 215.361C1937 274.771 1888.9 323.041 1829.34 323.041C1769.77 323.041 1721.67 274.932 1721.67 215.361C1721.67 155.79 1769.77 107.681 1829.34 107.681C1888.9 107.681 1937 155.951 1937 215.361Z" fill="#EC2F28"/>
<path d="M1291.33 968.801H1076.17V1184H1291.33V968.801Z" fill="#F0F0F2"/>
<path d="M1291.33 968.801C1291.33 1087.62 1194.97 1184 1076.17 1184V968.801H1291.33Z" fill="#EC2F28"/>
<path d="M1076.17 1076.32C1076.17 1135.73 1028.06 1184 968.5 1184C908.938 1184 860.835 1135.89 860.835 1076.32C860.835 1016.91 908.938 968.639 968.5 968.639C1028.06 968.639 1076.17 1016.91 1076.17 1076.32Z" fill="#262626"/>
<path d="M269.081 430.56C269.081 400.855 293.132 376.801 322.833 376.801C352.534 376.801 376.585 400.855 376.585 430.56C376.585 460.265 352.534 484.32 322.833 484.32C293.132 484.32 269.081 460.265 269.081 430.56Z" fill="#262626"/>
<path d="M322.833 107.68C322.833 48.2705 370.935 0 430.498 0C490.06 0 538.162 48.109 538.162 107.68C538.162 167.251 489.899 215.36 430.498 215.36C371.096 215.36 322.833 167.251 322.833 107.68Z" fill="#262626"/>
</svg>
