<svg width="3589" height="813" viewBox="0 0 3589 813" fill="none" xmlns="http://www.w3.org/2000/svg">
<path d="M1328.98 811.726H1196.11V678.858H1328.98V811.726Z" fill="#BFADA3"/>
<path d="M1196.11 678.858C1196.11 752.219 1255.62 811.726 1328.98 811.726V678.858H1196.11Z" fill="#262626"/>
<path d="M1594.82 811.726H1328.98V545.89H1594.82V811.726Z" fill="#BFADA3"/>
<path d="M1727.68 811.726H1594.82V678.858H1727.68V811.726Z" fill="#EC2F28"/>
<path d="M1628.01 745.241C1628.01 763.582 1642.86 778.434 1661.2 778.434C1679.54 778.434 1694.49 763.582 1694.49 745.241C1694.49 726.901 1679.64 712.049 1661.3 712.049C1642.96 712.049 1628.01 726.901 1628.01 745.241Z" fill="#BFADA3"/>
<path d="M1860.55 811.726H1727.69V678.858H1860.55V811.726Z" fill="#BFADA3"/>
<path d="M1727.69 678.858C1727.69 752.219 1787.19 811.726 1860.65 811.726V678.858H1727.69Z" fill="#D2D6D9"/>
<path d="M1993.52 811.726H1860.65V678.858H1993.52V811.726Z" fill="#D2D6D9"/>
<path d="M1860.65 745.242C1860.65 781.923 1890.36 811.726 1927.14 811.726C1963.92 811.726 1993.52 782.023 1993.52 745.242C1993.52 708.462 1963.82 678.758 1927.04 678.758C1890.26 678.758 1860.65 708.561 1860.65 745.242Z" fill="#F0F0F2"/>
<path d="M1328.98 678.858H1196.11V545.99H1328.98V678.858Z" fill="#EC2F28"/>
<path d="M1229.3 612.374C1229.3 630.714 1244.16 645.566 1262.5 645.566C1280.84 645.566 1295.79 630.714 1295.79 612.374C1295.79 594.033 1280.94 579.182 1262.6 579.182C1244.26 579.182 1229.3 594.033 1229.3 612.374Z" fill="#262626"/>
<path d="M1727.68 678.858H1594.82V545.99H1727.68V678.858Z" fill="#EC2F28"/>
<path d="M1594.82 545.889C1594.82 619.251 1654.32 678.758 1727.68 678.758V545.889H1594.82Z" fill="#262626"/>
<path d="M1860.55 678.858H1727.69V545.99H1860.55V678.858Z" fill="#EC2F28"/>
<path d="M1860.66 545.889C1787.29 545.889 1727.79 605.396 1727.79 678.758H1860.66V545.889Z" fill="#F0F0F2"/>
<path d="M1993.52 678.858H1860.65V545.99H1993.52V678.858Z" fill="#F0F0F2"/>
<path d="M1860.65 545.889C1860.65 619.251 1920.16 678.758 1993.52 678.758V545.889H1860.65Z" fill="#F0F0F2"/>
<path d="M1461.85 545.89H1328.98V413.021H1461.85V545.89Z" fill="#EC2F28"/>
<path d="M1328.98 479.506C1328.98 516.187 1358.69 545.99 1395.47 545.99C1432.25 545.99 1461.95 516.286 1461.95 479.506C1461.95 442.725 1432.15 413.022 1395.47 413.022C1358.79 413.022 1328.98 442.725 1328.98 479.506Z" fill="#F0F0F2"/>
<path d="M1594.82 545.89H1461.95V413.021H1594.82V545.89Z" fill="#F0F0F2"/>
<path d="M1727.68 545.89C1727.68 472.528 1668.18 413.021 1594.82 413.021V545.89H1727.68Z" fill="#262626"/>
<path d="M1860.66 413.021C1787.29 413.021 1727.79 472.528 1727.79 545.89H1860.66V413.021Z" fill="#EC2F28"/>
<path d="M1993.52 545.89H1860.65V413.021H1993.52V545.89Z" fill="#D2D6D9"/>
<path d="M1893.85 479.506C1893.85 497.846 1908.7 512.698 1927.04 512.698C1945.38 512.698 1960.23 497.846 1960.23 479.506C1960.23 461.165 1945.38 446.314 1927.04 446.314C1908.7 446.214 1893.85 461.165 1893.85 479.506Z" fill="#EC2F28"/>
<path d="M1328.98 346.538C1328.98 383.218 1358.69 413.022 1395.47 413.022C1432.25 413.022 1461.95 383.318 1461.95 346.538C1461.95 309.757 1432.25 280.054 1395.47 280.054C1358.69 280.054 1328.98 309.857 1328.98 346.538Z" fill="#D2D6D9"/>
<path d="M1594.82 346.538C1594.82 383.218 1624.52 413.022 1661.3 413.022C1698.08 413.022 1727.78 383.318 1727.78 346.538C1727.78 309.757 1698.08 280.054 1661.3 280.054C1624.52 280.054 1594.82 309.857 1594.82 346.538Z" fill="#F0F0F2"/>
<path d="M1993.52 413.022C1993.52 339.66 1934.02 280.153 1860.65 280.153V413.022H1993.52Z" fill="#D2D6D9"/>
<path d="M2325.74 413.021C2325.74 376.34 2296.04 346.537 2259.26 346.537C2222.48 346.537 2192.87 376.34 2192.87 413.021C2192.87 449.702 2222.58 479.505 2259.36 479.505C2296.14 479.505 2325.74 449.702 2325.74 413.021Z" fill="#EC2F28"/>
<path d="M2126.39 545.89H1993.52V413.021H2126.39V545.89Z" fill="#262626"/>
<path d="M2126.39 479.506C2126.39 442.825 2096.69 413.022 2059.91 413.022C2023.13 413.022 1993.52 442.725 1993.52 479.506C1993.52 516.286 2023.23 545.99 2060.01 545.99C2096.79 545.99 2126.39 516.187 2126.39 479.506Z" fill="#F0F0F2"/>
<path d="M2392.23 612.374C2392.23 575.693 2362.52 545.89 2325.74 545.89C2288.96 545.89 2259.26 575.593 2259.26 612.374C2259.26 649.154 2288.96 678.858 2325.74 678.858C2362.52 678.858 2392.23 649.055 2392.23 612.374Z" fill="#EC2F28"/>
<path d="M2259.26 678.858H2126.39V545.99H2259.26V678.858Z" fill="#EC2F28"/>
<path d="M2226.07 612.374C2226.07 594.033 2211.21 579.182 2192.87 579.182C2174.53 579.182 2159.68 594.033 2159.68 612.374C2159.68 630.714 2174.53 645.566 2192.87 645.566C2211.21 645.566 2226.07 630.714 2226.07 612.374Z" fill="#D2D6D9"/>
<path d="M2392.23 811.726H2259.36V678.858H2392.23V811.726Z" fill="#F0F0F2"/>
<path d="M2259.36 678.858C2259.36 752.219 2318.86 811.726 2392.23 811.726V678.858H2259.36Z" fill="#262626"/>
<path d="M2259.26 811.726H2126.39V678.858H2259.26V811.726Z" fill="#F0F0F2"/>
<path d="M2226.07 745.241C2226.07 726.901 2211.21 712.049 2192.87 712.049C2174.53 712.049 2159.68 726.901 2159.68 745.241C2159.68 763.582 2174.53 778.434 2192.87 778.434C2211.21 778.434 2226.07 763.582 2226.07 745.241Z" fill="#EC2F28"/>
<path d="M2126.39 811.726H1993.52V678.858H2126.39V811.726Z" fill="#D2D6D9"/>
<path d="M1362.27 479.506C1362.27 497.846 1377.13 512.698 1395.47 512.698C1413.81 512.698 1428.66 497.846 1428.66 479.506C1428.66 461.165 1413.81 446.314 1395.47 446.314C1377.13 446.314 1362.27 461.165 1362.27 479.506Z" fill="#262626"/>
<rect x="1485.45" y="0.934753" width="521.616" height="811.068"/>
<path d="M1328.98 678.858C1328.98 752.219 1388.49 811.726 1461.95 811.726C1535.41 811.726 1594.82 752.219 1594.82 678.858C1594.82 605.496 1535.31 545.99 1461.95 545.99C1388.59 545.99 1328.98 605.397 1328.98 678.858Z" fill="#F0F0F2"/>
<path d="M1395.46 678.858C1395.46 715.539 1425.17 745.342 1461.95 745.342C1498.73 745.342 1528.43 715.639 1528.43 678.858C1528.43 642.078 1498.63 612.374 1461.95 612.374C1425.27 612.374 1395.46 642.078 1395.46 678.858Z" fill="#262626"/>
<path d="M1993.52 811.726C2066.89 811.726 2126.39 752.219 2126.39 678.858H1993.52V811.726Z" fill="#BFADA3"/>
<path d="M1461.95 479.506C1461.95 516.187 1491.65 545.99 1528.43 545.99C1565.21 545.99 1594.92 516.286 1594.92 479.506C1594.92 442.725 1565.11 413.022 1528.33 413.022C1491.55 413.022 1461.95 442.725 1461.95 479.506Z" fill="#EC2F28"/>
<path d="M2126.39 678.858H1993.52V545.99H2126.39V678.858Z" fill="#BFADA3"/>
<path d="M2425.42 213.986C2425.42 195.646 2440.27 180.794 2458.61 180.794C2476.95 180.794 2491.9 195.646 2491.9 213.986C2491.9 232.327 2477.05 247.178 2458.71 247.178C2440.37 247.178 2425.42 232.327 2425.42 213.986Z" fill="#262626"/>
<path d="M2790.93 280.47C2790.93 207.109 2850.44 147.602 2923.8 147.602V280.47H2790.93Z" fill="#262626"/>
<path d="M2525.09 280.47H2392.23V413.338H2525.09V280.47Z" fill="#EC2F28"/>
<path d="M2392.23 280.47C2465.59 280.47 2525.09 339.977 2525.09 413.338H2392.23V280.47Z" fill="#262626"/>
<path d="M2657.96 280.47H2525.1V413.338H2657.96V280.47Z" fill="#EC2F28"/>
<path d="M2525.1 346.854C2525.1 310.173 2554.8 280.37 2591.58 280.37C2628.36 280.37 2658.06 310.073 2658.06 346.854C2658.06 383.634 2628.26 413.338 2591.58 413.338C2554.9 413.338 2525.1 383.634 2525.1 346.854Z" fill="#F0F0F2"/>
<path d="M2790.93 280.47H2658.06V413.338H2790.93V280.47Z" fill="#F0F0F2"/>
<path d="M2658.06 346.854C2658.06 310.173 2687.77 280.37 2724.55 280.37C2761.33 280.37 2791.03 310.073 2791.03 346.854C2791.03 383.634 2761.23 413.338 2724.45 413.338C2687.67 413.338 2658.06 383.634 2658.06 346.854Z" fill="#EC2F28"/>
<path d="M2923.8 280.47H2790.93V413.338H2923.8V280.47Z" fill="#BFADA3"/>
<path d="M2923.8 280.47C2923.8 353.832 2864.29 413.338 2790.93 413.338V280.47H2923.8Z" fill="#262626"/>
<path d="M3056.67 280.47H2923.8V413.338H3056.67V280.47Z" fill="#BFADA3"/>
<path d="M3056.77 413.338C2983.41 413.338 2923.9 353.832 2923.9 280.47H3056.77V413.338Z" fill="#EC2F28"/>
<path d="M3089.96 346.854C3089.96 328.514 3104.81 313.662 3123.15 313.662C3141.49 313.662 3156.34 328.514 3156.34 346.854C3156.34 365.195 3141.49 380.046 3123.15 380.046C3104.81 380.146 3089.96 365.195 3089.96 346.854Z" fill="#EC2F28"/>
<path d="M2525.09 413.338H2392.23V546.206H2525.09V413.338Z" fill="#BFADA3"/>
<path d="M2525.09 413.338C2525.09 486.7 2465.59 546.206 2392.23 546.206V413.338H2525.09Z" fill="#D2D6D9"/>
<path d="M2657.96 413.338H2525.1V546.206H2657.96V413.338Z" fill="#BFADA3"/>
<path d="M2525.1 479.822C2525.1 443.141 2554.8 413.338 2591.58 413.338C2628.36 413.338 2658.06 443.041 2658.06 479.822C2658.06 516.602 2628.36 546.306 2591.58 546.306C2554.8 546.306 2525.1 516.503 2525.1 479.822Z" fill="#D2D6D9"/>
<path d="M2790.93 413.338H2658.06V546.206H2790.93V413.338Z" fill="#F0F0F2"/>
<path d="M2691.25 479.822C2691.25 461.482 2706.11 446.63 2724.45 446.63C2742.79 446.63 2757.64 461.482 2757.64 479.822C2757.64 498.163 2742.79 513.014 2724.45 513.014C2706.11 513.014 2691.25 498.163 2691.25 479.822Z" fill="#D2D6D9"/>
<path d="M2923.8 413.338H2790.93V546.206H2923.8V413.338Z" fill="#262626"/>
<path d="M2790.93 479.822C2790.93 443.141 2820.63 413.338 2857.41 413.338C2894.19 413.338 2923.9 443.041 2923.9 479.822C2923.9 516.602 2894.19 546.306 2857.41 546.306C2820.63 546.306 2790.93 516.503 2790.93 479.822Z" fill="#F0F0F2"/>
<path d="M3056.67 413.338H2923.8V546.206H3056.67V413.338Z" fill="#BFADA3"/>
<path d="M2957.09 479.822C2957.09 461.482 2971.94 446.63 2990.28 446.63C3008.62 446.63 3023.47 461.482 3023.47 479.822C3023.47 498.163 3008.62 513.014 2990.28 513.014C2971.94 513.014 2957.09 498.163 2957.09 479.822Z" fill="#EC2F28"/>
<path d="M3189.63 413.338H3056.77V546.206H3189.63V413.338Z" fill="#262626"/>
<path d="M3189.63 413.338C3189.63 486.7 3130.13 546.206 3056.77 546.206V413.338H3189.63Z" fill="#D2D6D9"/>
<path d="M2525.09 546.206H2392.23V679.074H2525.09V546.206Z" fill="#D2D6D9"/>
<path d="M2392.23 612.69C2392.23 576.009 2421.93 546.206 2458.71 546.206C2495.49 546.206 2525.19 575.91 2525.19 612.69C2525.19 649.47 2495.49 679.174 2458.71 679.174C2421.93 679.174 2392.23 649.371 2392.23 612.69Z" fill="#BFADA3"/>
<path d="M2657.96 546.206H2525.1V679.074H2657.96V546.206Z" fill="#BFADA3"/>
<path d="M2525.1 612.69C2525.1 576.009 2554.8 546.206 2591.58 546.206C2628.36 546.206 2658.06 575.91 2658.06 612.69C2658.06 649.47 2628.36 679.174 2591.58 679.174C2554.8 679.174 2525.1 649.371 2525.1 612.69Z" fill="#262626"/>
<path d="M2558.39 612.69C2558.39 594.35 2573.24 579.498 2591.58 579.498C2609.92 579.498 2624.77 594.35 2624.77 612.69C2624.77 631.031 2609.92 645.882 2591.58 645.882C2573.24 645.882 2558.39 631.031 2558.39 612.69Z" fill="#BFADA3"/>
<path d="M3056.67 546.206H2923.8V679.074H3056.67V546.206Z" fill="#D2D6D9"/>
<path d="M3056.77 546.206C3056.77 619.568 2997.26 679.074 2923.9 679.074V546.206H3056.77Z" fill="#BFADA3"/>
<path d="M3189.63 546.206H3056.77V679.074H3189.63V546.206Z" fill="#BFADA3"/>
<path d="M3056.77 679.175C3056.77 605.813 3116.27 546.306 3189.63 546.306V679.175H3056.77Z" fill="#EC2F28"/>
<path d="M2525.09 679.174H2392.23V812.043H2525.09V679.174Z" fill="#EC2F28"/>
<path d="M2425.42 745.558C2425.42 727.218 2440.27 712.366 2458.61 712.366C2476.95 712.366 2491.8 727.218 2491.8 745.558C2491.8 763.899 2476.95 778.75 2458.61 778.75C2440.27 778.75 2425.42 763.899 2425.42 745.558Z" fill="#D2D6D9"/>
<path d="M2657.96 679.174H2525.1V812.043H2657.96V679.174Z" fill="#262626"/>
<path d="M2658.06 679.174C2658.06 752.536 2598.55 812.043 2525.19 812.043V679.174H2658.06Z" fill="#EC2F28"/>
<path d="M2923.9 546.206H2658.06V812.042H2923.9V546.206Z" fill="#D2D6D9"/>
<path d="M2923.8 812.042C2776.98 812.042 2657.96 693.029 2657.96 546.206H2923.8V812.042Z" fill="#BFADA3"/>
<path d="M3588.34 679.174H3455.47V812.043H3588.34V679.174Z" fill="#BFADA3"/>
<path d="M3588.34 745.558C3588.34 782.238 3558.64 812.042 3521.86 812.042C3485.08 812.042 3455.37 782.338 3455.37 745.558C3455.37 708.877 3485.08 679.074 3521.86 679.074C3558.64 679.074 3588.34 708.877 3588.34 745.558Z" fill="#F0F0F2"/>
<path d="M3455.37 679.174H3322.5V812.043H3455.37V679.174Z" fill="#262626"/>
<path d="M3455.47 812.043C3382.11 812.043 3322.6 752.536 3322.6 679.174H3455.47V812.043Z" fill="#BFADA3"/>
<path d="M3322.5 679.174H3189.64V812.043H3322.5V679.174Z" fill="#EC2F28"/>
<path d="M3289.31 745.558C3289.31 763.899 3274.46 778.75 3256.12 778.75C3237.78 778.75 3222.93 763.899 3222.93 745.558C3222.93 727.218 3237.78 712.366 3256.12 712.366C3274.46 712.366 3289.31 727.218 3289.31 745.558Z" fill="#BFADA3"/>
<path d="M3588.34 546.206H3455.47V679.074H3588.34V546.206Z" fill="#262626"/>
<path d="M3455.47 679.175C3455.47 605.813 3514.98 546.306 3588.34 546.306V679.175H3455.47Z" fill="#D2D6D9"/>
<path d="M3455.37 546.206H3322.5V679.074H3455.37V546.206Z" fill="#F0F0F2"/>
<path d="M3455.47 546.206C3455.47 619.568 3395.97 679.074 3322.6 679.074V546.206H3455.47Z" fill="#BFADA3"/>
<path d="M3322.5 546.206H3189.64V679.074H3322.5V546.206Z" fill="#D2D6D9"/>
<path d="M3322.5 546.206C3322.5 619.568 3263 679.074 3189.64 679.074V546.206H3322.5Z" fill="#262626"/>
<path d="M3322.5 413.338H3189.64V546.206H3322.5V413.338Z" fill="#BFADA3"/>
<path d="M3189.64 546.206C3189.64 472.845 3249.14 413.338 3322.5 413.338V546.206H3189.64Z" fill="#262626"/>
<path d="M3521.86 413.338C3521.86 450.019 3492.15 479.822 3455.37 479.822C3418.59 479.822 3388.99 450.019 3388.99 413.338C3388.99 376.657 3418.69 346.854 3455.47 346.854C3492.25 346.854 3521.86 376.657 3521.86 413.338Z" fill="#EC2F28"/>
<path d="M3056.67 679.174H2923.8V812.043H3056.67V679.174Z" fill="#F0F0F2"/>
<path d="M3189.63 679.174H3056.77V812.043H3189.63V679.174Z" fill="#F0F0F2"/>
<path d="M3189.63 679.174C3189.63 752.536 3130.13 812.043 3056.77 812.043V679.174H3189.63Z" fill="#EC2F28"/>
<path d="M3056.77 745.558C3056.77 782.238 3027.06 812.042 2990.28 812.042C2953.5 812.042 2923.8 782.338 2923.8 745.558C2923.8 708.877 2953.5 679.074 2990.28 679.074C3027.06 679.074 3056.77 708.877 3056.77 745.558Z" fill="#262626"/>
<path d="M2558.39 346.854C2558.39 328.514 2573.24 313.662 2591.58 313.662C2609.92 313.662 2624.77 328.514 2624.77 346.854C2624.77 365.195 2609.92 380.046 2591.58 380.046C2573.24 380.046 2558.39 365.195 2558.39 346.854Z" fill="#262626"/>
<path d="M2591.58 147.502C2591.58 110.821 2621.28 81.0179 2658.06 81.0179C2694.84 81.0179 2724.55 110.721 2724.55 147.502C2724.55 184.282 2694.74 213.986 2658.06 213.986C2621.38 213.986 2591.58 184.282 2591.58 147.502Z" fill="#262626"/>
<path d="M33.1914 213.986C33.1914 195.645 48.0431 180.794 66.3835 180.794C84.7239 180.794 99.6753 195.645 99.6753 213.986C99.6753 232.326 84.8236 247.178 66.4832 247.178C48.1428 247.178 33.1914 232.326 33.1914 213.986Z" fill="#262626"/>
<path d="M531.573 147.503H398.705V280.371H531.573V147.503Z" fill="#D2D6D9"/>
<path d="M398.705 280.47C398.705 207.108 458.212 147.601 531.573 147.601V280.47H398.705Z" fill="#262626"/>
<path d="M265.735 280.469H132.867V413.338H265.735V280.469Z" fill="#EC2F28"/>
<path d="M132.867 346.854C132.867 310.173 162.571 280.37 199.351 280.37C236.132 280.37 265.835 310.074 265.835 346.854C265.835 383.635 236.032 413.338 199.351 413.338C162.67 413.338 132.867 383.635 132.867 346.854Z" fill="#F0F0F2"/>
<path d="M398.704 280.469H265.836V413.338H398.704V280.469Z" fill="#F0F0F2"/>
<path d="M265.836 346.854C265.836 310.173 295.539 280.37 332.32 280.37C369.1 280.37 398.804 310.074 398.804 346.854C398.804 383.635 369.001 413.338 332.22 413.338C295.44 413.338 265.836 383.635 265.836 346.854Z" fill="#EC2F28"/>
<path d="M531.573 280.469C531.573 353.831 472.067 413.338 398.705 413.338V280.469H531.573Z" fill="#262626"/>
<path d="M797.409 280.469H664.541V413.338H797.409V280.469Z" fill="#D2D6D9"/>
<path d="M697.732 346.854C697.732 328.514 712.584 313.662 730.925 313.662C749.265 313.662 764.117 328.514 764.117 346.854C764.117 365.195 749.265 380.046 730.925 380.046C712.584 380.146 697.732 365.195 697.732 346.854Z" fill="#EC2F28"/>
<path d="M132.868 413.338H0V546.206H132.868V413.338Z" fill="#BFADA3"/>
<path d="M132.868 413.338C132.868 486.7 73.3616 546.206 0 546.206V413.338H132.868Z" fill="#D2D6D9"/>
<path d="M265.735 413.338H132.867V546.206H265.735V413.338Z" fill="#BFADA3"/>
<path d="M132.867 479.822C132.867 443.141 162.571 413.338 199.351 413.338C236.132 413.338 265.835 443.041 265.835 479.822C265.835 516.602 236.132 546.306 199.351 546.306C162.571 546.306 132.867 516.503 132.867 479.822Z" fill="#D2D6D9"/>
<path d="M398.704 413.338H265.836V546.206H398.704V413.338Z" fill="#F0F0F2"/>
<path d="M299.027 479.822C299.027 461.481 313.879 446.63 332.219 446.63C350.56 446.63 365.412 461.481 365.412 479.822C365.412 498.162 350.56 513.014 332.219 513.014C313.879 513.014 299.027 498.162 299.027 479.822Z" fill="#D2D6D9"/>
<path d="M531.573 413.338H398.705V546.206H531.573V413.338Z" fill="#262626"/>
<path d="M398.705 479.822C398.705 443.141 428.409 413.338 465.189 413.338C501.97 413.338 531.673 443.041 531.673 479.822C531.673 516.602 501.97 546.306 465.189 546.306C428.409 546.306 398.705 516.503 398.705 479.822Z" fill="#F0F0F2"/>
<path d="M664.44 413.338H531.572V546.206H664.44V413.338Z" fill="#BFADA3"/>
<path d="M564.865 479.822C564.865 461.481 579.717 446.63 598.057 446.63C616.398 446.63 631.249 461.481 631.249 479.822C631.249 498.162 616.398 513.014 598.057 513.014C579.717 513.014 564.865 498.162 564.865 479.822Z" fill="#EC2F28"/>
<path d="M797.409 413.338H664.541V546.206H797.409V413.338Z" fill="#262626"/>
<path d="M797.409 413.338C797.409 486.7 737.903 546.206 664.541 546.206V413.338H797.409Z" fill="#D2D6D9"/>
<path d="M132.868 546.206H0V679.074H132.868V546.206Z" fill="#D2D6D9"/>
<path d="M0 612.69C0 576.009 29.7035 546.206 66.4839 546.206C103.264 546.206 132.968 575.91 132.968 612.69C132.968 649.47 103.264 679.174 66.4839 679.174C29.7035 679.174 0 649.371 0 612.69Z" fill="#BFADA3"/>
<path d="M265.735 546.206H132.867V679.074H265.735V546.206Z" fill="#BFADA3"/>
<path d="M132.867 612.69C132.867 576.009 162.571 546.206 199.351 546.206C236.132 546.206 265.835 575.91 265.835 612.69C265.835 649.47 236.132 679.174 199.351 679.174C162.571 679.174 132.867 649.371 132.867 612.69Z" fill="#262626"/>
<path d="M166.16 612.69C166.16 594.35 181.012 579.498 199.352 579.498C217.693 579.498 232.544 594.35 232.544 612.69C232.544 631.031 217.693 645.882 199.352 645.882C181.012 645.882 166.16 631.031 166.16 612.69Z" fill="#BFADA3"/>
<path d="M664.44 546.206H531.572V679.074H664.44V546.206Z" fill="#D2D6D9"/>
<path d="M664.54 546.206C664.54 619.568 605.033 679.074 531.672 679.074V546.206H664.54Z" fill="#BFADA3"/>
<path d="M797.409 546.206H664.541V679.074H797.409V546.206Z" fill="#BFADA3"/>
<path d="M664.541 679.174C664.541 605.813 724.048 546.306 797.409 546.306V679.174H664.541Z" fill="#EC2F28"/>
<path d="M132.868 679.174H0V812.043H132.868V679.174Z" fill="#EC2F28"/>
<path d="M33.1914 745.558C33.1914 727.218 48.0431 712.366 66.3835 712.366C84.7239 712.366 99.5757 727.218 99.5757 745.558C99.5757 763.899 84.7239 778.75 66.3835 778.75C48.0431 778.75 33.1914 763.899 33.1914 745.558Z" fill="#D2D6D9"/>
<path d="M265.735 679.174H132.867V812.043H265.735V679.174Z" fill="#262626"/>
<path d="M265.837 679.174C265.837 752.536 206.33 812.043 132.969 812.043V679.174H265.837Z" fill="#EC2F28"/>
<path d="M531.672 546.206H265.836V812.042H531.672V546.206Z" fill="#D2D6D9"/>
<path d="M531.572 812.042C384.75 812.042 265.736 693.029 265.736 546.206H531.572V812.042Z" fill="#BFADA3"/>
<path d="M1196.11 679.174H1063.24V812.043H1196.11V679.174Z" fill="#BFADA3"/>
<path d="M1196.11 745.559C1196.11 782.239 1166.41 812.043 1129.63 812.043C1092.85 812.043 1063.14 782.339 1063.14 745.559C1063.14 708.878 1092.85 679.075 1129.63 679.075C1166.41 679.075 1196.11 708.878 1196.11 745.559Z" fill="#F0F0F2"/>
<path d="M1063.15 679.174H930.277V812.043H1063.15V679.174Z" fill="#262626"/>
<path d="M1063.25 812.043C989.883 812.043 930.377 752.536 930.377 679.174H1063.25V812.043Z" fill="#BFADA3"/>
<path d="M930.276 679.174H797.408V812.043H930.276V679.174Z" fill="#EC2F28"/>
<path d="M897.085 745.558C897.085 763.899 882.234 778.75 863.893 778.75C845.553 778.75 830.701 763.899 830.701 745.558C830.701 727.218 845.553 712.366 863.893 712.366C882.234 712.366 897.085 727.218 897.085 745.558Z" fill="#BFADA3"/>
<path d="M1196.11 546.206H1063.24V679.074H1196.11V546.206Z" fill="#262626"/>
<path d="M1063.24 679.174C1063.24 605.813 1122.75 546.306 1196.11 546.306V679.174H1063.24Z" fill="#D2D6D9"/>
<path d="M1063.15 546.206H930.277V679.074H1063.15V546.206Z" fill="#F0F0F2"/>
<path d="M1063.25 546.206C1063.25 619.568 1003.74 679.074 930.377 679.074V546.206H1063.25Z" fill="#BFADA3"/>
<path d="M930.276 546.206H797.408V679.074H930.276V546.206Z" fill="#D2D6D9"/>
<path d="M930.276 546.206C930.276 619.568 870.77 679.074 797.408 679.074V546.206H930.276Z" fill="#262626"/>
<path d="M930.276 413.338H797.408V546.206H930.276V413.338Z" fill="#BFADA3"/>
<path d="M797.408 546.206C797.408 472.845 856.915 413.338 930.276 413.338V546.206H797.408Z" fill="#262626"/>
<path d="M1196.11 280.469H930.277V546.306H1196.11V280.469Z" fill="#BFADA3"/>
<path d="M1129.63 413.338C1129.63 450.019 1099.92 479.822 1063.14 479.822C1026.36 479.822 996.76 450.019 996.76 413.338C996.76 376.657 1026.46 346.854 1063.24 346.854C1100.02 346.854 1129.63 376.657 1129.63 413.338Z" fill="#EC2F28"/>
<path d="M930.276 280.469H797.408V413.338H930.276V280.469Z" fill="#262626"/>
<path d="M930.276 346.854C930.276 383.535 900.573 413.338 863.792 413.338C827.012 413.338 797.408 383.635 797.408 346.854C797.408 310.074 827.112 280.37 863.892 280.37C900.673 280.37 930.276 310.173 930.276 346.854Z" fill="#F0F0F2"/>
<path d="M1196.11 213.987C1196.11 250.667 1166.41 280.471 1129.63 280.471C1092.85 280.471 1063.14 250.767 1063.14 213.987C1063.14 177.206 1092.85 147.503 1129.63 147.503C1166.41 147.503 1196.11 177.306 1196.11 213.987Z" fill="#EC2F28"/>
<path d="M797.409 679.174H664.541V812.043H797.409V679.174Z" fill="#F0F0F2"/>
<path d="M797.409 679.174C797.409 752.536 737.903 812.043 664.541 812.043V679.174H797.409Z" fill="#EC2F28"/>
<path d="M664.54 745.559C664.54 782.239 634.837 812.043 598.056 812.043C561.276 812.043 531.572 782.339 531.572 745.559C531.572 708.878 561.276 679.075 598.056 679.075C634.837 679.075 664.54 708.878 664.54 745.559Z" fill="#262626"/>
<path d="M166.16 346.854C166.16 328.514 181.012 313.662 199.352 313.662C217.693 313.662 232.544 328.514 232.544 346.854C232.544 365.195 217.693 380.046 199.352 380.046C181.012 380.046 166.16 365.195 166.16 346.854Z" fill="#262626"/>
<path d="M199.352 147.502C199.352 110.821 229.055 81.0179 265.836 81.0179C302.616 81.0179 332.319 110.721 332.319 147.502C332.319 184.282 302.516 213.986 265.836 213.986C229.155 213.986 199.352 184.282 199.352 147.502Z" fill="#262626"/>
</svg>
