<svg width="5812" height="754" viewBox="0 0 5812 754" fill="none" xmlns="http://www.w3.org/2000/svg">
<path d="M915.337 215.348C915.337 185.645 939.39 161.592 969.093 161.592C998.796 161.592 1022.85 185.645 1022.85 215.348C1022.85 245.051 998.796 269.104 969.093 269.104C939.39 269.104 915.337 245.051 915.337 215.348Z" fill="#EC2F28"/>
<path d="M1076.77 538.208C1076.77 419.395 1173.14 323.021 1291.95 323.021V538.208H1076.77Z" fill="#EC2F28"/>
<path d="M215.699 538.209H0.512207V753.395H215.699V538.209Z" fill="#EC2F28"/>
<path d="M54.2681 645.721C54.2681 616.018 78.3212 591.965 108.024 591.965C137.727 591.965 161.781 616.018 161.781 645.721C161.781 675.424 137.727 699.477 108.024 699.477C78.3212 699.477 54.2681 675.424 54.2681 645.721Z" fill="#D2D6D9"/>
<path d="M431.047 538.209C431.047 657.022 334.673 753.395 215.86 753.395V538.209H431.047Z" fill="#EC2F28"/>
<path d="M1830 107.674C1830 167.08 1781.89 215.348 1722.33 215.348C1662.76 215.348 1614.81 167.08 1614.81 107.674C1614.81 48.2677 1662.92 0 1722.49 0C1782.06 0 1830 48.2677 1830 107.674Z" fill="#EC2F28"/>
<path d="M1291.95 538.209C1291.95 657.022 1195.58 753.395 1076.77 753.395V538.209H1291.95Z" fill="#EC2F28"/>
<path d="M4359.8 215.678C4359.8 185.975 4383.85 161.922 4413.56 161.922C4443.26 161.922 4467.31 185.975 4467.31 215.678C4467.31 245.381 4443.26 269.434 4413.56 269.434C4383.85 269.434 4359.8 245.381 4359.8 215.678Z" fill="#D2D6D9"/>
<path d="M4951.77 538.539C4951.77 419.726 5048.14 323.353 5166.95 323.353V538.539H4951.77Z" fill="#EC2F28"/>
<path d="M4090.7 538.539H3875.51V753.725H4090.7V538.539Z" fill="#EC2F28"/>
<path d="M3929.27 646.051C3929.27 616.348 3953.32 592.295 3983.02 592.295C4012.73 592.295 4036.78 616.348 4036.78 646.051C4036.78 675.754 4012.73 699.807 3983.02 699.807C3953.32 699.807 3929.27 675.754 3929.27 646.051Z" fill="#D2D6D9"/>
<path d="M4306.05 538.539C4306.05 657.352 4209.67 753.725 4090.86 753.725V538.539H4306.05Z" fill="#EC2F28"/>
<path d="M5705 108.004C5705 167.41 5656.89 215.678 5597.33 215.678C5537.76 215.678 5489.81 167.41 5489.81 108.004C5489.81 48.5977 5537.92 0.330078 5597.49 0.330078C5657.06 0.330078 5705 48.5977 5705 108.004Z" fill="#EC2F28"/>
<path d="M5166.95 538.539C5166.95 657.352 5070.58 753.725 4951.77 753.725V538.539H5166.95Z" fill="#EC2F28"/>
<path d="M1938.51 537.864C1938.51 656.677 2034.89 753.051 2153.7 753.051V537.864H1938.51Z" fill="#262626"/>
<path d="M2153.7 537.863H1938.51V322.677H2153.7V537.863Z" fill="#EC2F28"/>
<path d="M1992.27 430.189C1992.27 459.892 2016.32 483.945 2046.03 483.945C2075.73 483.945 2099.94 459.892 2099.94 430.189C2099.94 400.486 2075.89 376.433 2046.19 376.433C2016.48 376.433 1992.27 400.486 1992.27 430.189Z" fill="#262626"/>
<path d="M2584.23 322.515C2584.23 441.327 2680.61 537.701 2799.42 537.701V322.515H2584.23Z" fill="#262626"/>
<path d="M2799.42 322.517C2799.42 203.704 2703.05 107.33 2584.23 107.33V322.517H2799.42Z" fill="#262626"/>
<path d="M3875.68 430.189C3875.68 370.783 3827.57 322.515 3768 322.515C3708.43 322.515 3660.33 370.622 3660.33 430.189C3660.33 489.757 3708.43 537.863 3768 537.863C3827.57 537.863 3875.68 489.596 3875.68 430.189Z" fill="#EC2F28"/>
<path d="M3606.57 645.375C3606.57 615.671 3582.52 591.618 3552.82 591.618C3523.11 591.618 3499.06 615.671 3499.06 645.375C3499.06 675.078 3523.11 699.131 3552.82 699.131C3582.52 699.131 3606.57 675.078 3606.57 645.375Z" fill="#EC2F28"/>
</svg>
