<svg width="5812" height="648" viewBox="0 0 5812 648" fill="none" xmlns="http://www.w3.org/2000/svg">
<path d="M2367.35 1.24023C2486.17 1.24023 2582.55 97.6226 2582.55 216.446H2367.35V1.24023Z" fill="#737EC2"/>
<path d="M3443.54 539.334C3443.54 598.746 3395.43 647.018 3335.86 647.018C3276.28 647.018 3228.34 598.907 3228.34 539.334C3228.34 479.922 3276.45 431.65 3336.02 431.65C3395.59 431.65 3443.54 479.922 3443.54 539.334Z" fill="#333745"/>
<path d="M3389.78 539.337C3389.78 569.043 3365.72 593.098 3336.02 593.098C3306.31 593.098 3282.26 569.043 3282.26 539.337C3282.26 509.631 3306.31 485.576 3336.02 485.576C3365.72 485.576 3389.78 509.631 3389.78 539.337Z" fill="#737EC2"/>
<path d="M2367.35 216.446C2248.52 216.446 2152.14 120.063 2152.14 1.24023H2367.35V216.446Z" fill="#737EC2"/>
<path d="M430.206 215.207C311.382 215.207 215 118.825 215 0.00142508H430.206V215.207Z" fill="#737EC2"/>
<path d="M430.209 0.00142508C549.032 0.00142508 645.415 96.3838 645.415 215.207H430.209V0.00142508Z" fill="#737EC2"/>
<path d="M1506.39 538.096C1506.39 597.507 1458.28 645.779 1398.71 645.779C1339.14 645.779 1291.19 597.669 1291.19 538.096C1291.19 478.523 1339.3 430.412 1398.87 430.412C1458.45 430.412 1506.39 478.684 1506.39 538.096Z" fill="#333745"/>
<path d="M1452.63 538.096C1452.63 567.802 1428.58 591.857 1398.87 591.857C1369.17 591.857 1345.11 567.802 1345.11 538.096C1345.11 508.391 1369.17 484.335 1398.87 484.335C1428.58 484.335 1452.63 508.391 1452.63 538.096Z" fill="#737EC2"/>
<path d="M4305.27 215.206C4186.45 215.206 4090.06 118.823 4090.06 0H4305.27V215.206Z" fill="#737EC2"/>
<path d="M4305.27 0C4424.09 0 4520.47 96.3824 4520.47 215.206H4305.27V0Z" fill="#737EC2"/>
<path d="M5381.46 538.094C5381.46 597.505 5333.35 645.777 5273.77 645.777C5214.2 645.777 5166.25 597.667 5166.25 538.094C5166.25 478.682 5214.36 430.41 5273.93 430.41C5333.51 430.41 5381.46 478.682 5381.46 538.094Z" fill="#333745"/>
<path d="M5327.7 538.093C5327.7 567.799 5303.64 591.854 5273.94 591.854C5244.23 591.854 5220.18 567.799 5220.18 538.093C5220.18 508.387 5244.23 484.332 5273.94 484.332C5303.64 484.332 5327.7 508.387 5327.7 538.093Z" fill="#737EC2"/>
</svg>
