<svg width="5812" height="1293" viewBox="0 0 5812 1293" fill="none" xmlns="http://www.w3.org/2000/svg">
<path d="M3874.67 645.916H3444.1V1076.49H3874.67V645.916Z" fill="#DAEDE2"/>
<path d="M3874.67 861.122C3874.67 979.945 3778.29 1076.33 3659.47 1076.33C3540.64 1076.33 3444.26 979.945 3444.26 861.122C3444.26 742.298 3540.48 645.916 3659.47 645.916C3778.29 645.916 3874.67 742.298 3874.67 861.122Z" fill="#77C4D3"/>
<path d="M1991.1 107.822C1991.1 78.1158 2015.15 54.0605 2044.86 54.0605C2074.56 54.0605 2098.78 78.1158 2098.78 107.822C2098.78 137.527 2074.73 161.583 2045.02 161.583C2015.31 161.583 1991.1 137.527 1991.1 107.822Z" fill="#333745"/>
<path d="M2367.75 0.136719H2152.54V215.342H2367.75V0.136719Z" fill="#EA2E49"/>
<path d="M2152.54 0.136719C2271.53 0.136719 2367.91 96.5192 2367.91 215.342H2152.54V0.136719Z" fill="#333745"/>
<path d="M2367.91 107.82C2367.91 48.4087 2416.02 0.136719 2475.59 0.136719C2535.17 0.136719 2583.11 48.2472 2583.11 107.82C2583.11 167.393 2535 215.504 2475.43 215.504C2415.86 215.504 2367.91 167.232 2367.91 107.82Z" fill="#333745"/>
<path d="M2421.67 107.822C2421.67 78.1158 2445.73 54.0605 2475.43 54.0605C2505.14 54.0605 2529.19 78.1158 2529.19 107.822C2529.19 137.527 2505.14 161.583 2475.43 161.583C2445.73 161.583 2421.67 137.527 2421.67 107.822Z" fill="#737EC2"/>
<path d="M2636.88 107.822C2636.88 78.1158 2660.93 54.0605 2690.64 54.0605C2720.35 54.0605 2744.56 78.1158 2744.56 107.822C2744.56 137.527 2720.51 161.583 2690.8 161.583C2661.1 161.583 2636.88 137.527 2636.88 107.822Z" fill="#77C4D3"/>
<path d="M3013.69 0.136719C3132.51 0.136719 3228.89 96.5192 3228.89 215.342H3013.69V0.136719Z" fill="#737EC2"/>
<path d="M2367.75 215.344H2152.54V430.549H2367.75V215.344Z" fill="#DAEDE2"/>
<path d="M2367.91 430.712C2249.09 430.712 2152.7 334.329 2152.7 215.506H2367.91V430.712Z" fill="#EA2E49"/>
<path d="M2583.11 215.344H2367.91V430.549H2583.11V215.344Z" fill="#737EC2"/>
<path d="M2367.91 215.344C2486.73 215.344 2583.11 311.726 2583.11 430.549H2367.91V215.344Z" fill="#EA2E49"/>
<path d="M3013.69 215.344H2583.11V645.917H3013.69V215.344Z" fill="#EA2E49"/>
<path d="M2690.8 430.709C2690.8 371.297 2738.91 323.025 2798.48 323.025C2858.05 323.025 2906.16 371.136 2906.16 430.709C2906.16 490.282 2858.05 538.392 2798.48 538.392C2738.91 538.392 2690.8 490.121 2690.8 430.709Z" fill="#DAEDE2"/>
<path d="M3228.89 215.344H3013.69V430.549H3228.89V215.344Z" fill="#EA2E49"/>
<path d="M3228.89 430.712C3110.07 430.712 3013.69 334.329 3013.69 215.506H3228.89V430.712Z" fill="#DAEDE2"/>
<path d="M2152.54 430.709H1937.34V645.915H2152.54V430.709Z" fill="#737EC2"/>
<path d="M1991.1 538.232C1991.1 508.526 2015.15 484.471 2044.86 484.471C2074.56 484.471 2098.62 508.526 2098.62 538.232C2098.62 567.938 2074.56 591.993 2044.86 591.993C2015.15 591.993 1991.1 567.938 1991.1 538.232Z" fill="#77C4D3"/>
<path d="M2367.75 430.709H2152.54V645.915H2367.75V430.709Z" fill="#DAEDE2"/>
<path d="M2152.54 430.709C2271.37 430.709 2367.75 527.091 2367.75 645.915H2152.54V430.709Z" fill="#333745"/>
<path d="M2583.11 430.709H2367.91V645.915H2583.11V430.709Z" fill="#77C4D3"/>
<path d="M2367.91 538.232C2367.91 478.821 2416.02 430.549 2475.59 430.549C2535.17 430.549 2583.28 478.659 2583.28 538.232C2583.28 597.805 2535 645.916 2475.43 645.916C2415.86 645.916 2367.91 597.805 2367.91 538.232Z" fill="#EA2E49"/>
<path d="M3228.89 430.709H3013.69V645.915H3228.89V430.709Z" fill="#737EC2"/>
<path d="M3013.69 538.232C3013.69 478.821 3061.8 430.549 3121.37 430.549C3180.94 430.549 3229.05 478.659 3229.05 538.232C3229.05 597.805 3180.78 645.916 3121.21 645.916C3061.64 645.916 3013.69 597.805 3013.69 538.232Z" fill="#333745"/>
<path d="M2152.54 645.916H1937.34V861.122H2152.54V645.916Z" fill="#EA2E49"/>
<path d="M1937.34 753.6C1937.34 694.027 1985.45 645.916 2045.02 645.916C2104.59 645.916 2152.7 694.027 2152.7 753.6C2152.7 813.173 2104.59 861.283 2045.02 861.283C1985.45 861.283 1937.34 813.011 1937.34 753.6Z" fill="#DAEDE2"/>
<path d="M2367.75 645.916H2152.54V861.122H2367.75V645.916Z" fill="#77C4D3"/>
<path d="M2583.11 645.916H2367.91V861.122H2583.11V645.916Z" fill="#DAEDE2"/>
<path d="M2798.32 645.916H2583.11V861.122H2798.32V645.916Z" fill="#737EC2"/>
<path d="M2583.11 753.6C2583.11 694.188 2631.22 645.916 2690.8 645.916C2750.37 645.916 2798.48 694.027 2798.48 753.6C2798.48 813.173 2750.37 861.283 2690.8 861.283C2631.22 861.283 2583.11 813.011 2583.11 753.6Z" fill="#77C4D3"/>
<path d="M3013.53 645.916H2798.32V861.122H3013.53V645.916Z" fill="#333745"/>
<path d="M3013.69 861.122C2894.86 861.122 2798.48 764.739 2798.48 645.916H3013.69V861.122Z" fill="#DAEDE2"/>
<path d="M3228.89 645.916H3013.69V861.122H3228.89V645.916Z" fill="#737EC2"/>
<path d="M3013.69 753.6C3013.69 694.188 3061.8 645.916 3121.37 645.916C3180.94 645.916 3229.05 694.027 3229.05 753.6C3229.05 813.173 3180.94 861.283 3121.37 861.283C3061.8 861.283 3013.69 813.011 3013.69 753.6Z" fill="#EA2E49"/>
<path d="M3067.45 753.599C3067.45 723.893 3091.5 699.838 3121.21 699.838C3150.91 699.838 3174.97 723.893 3174.97 753.599C3174.97 783.305 3150.91 807.36 3121.21 807.36C3091.5 807.36 3067.45 783.305 3067.45 753.599Z" fill="#737EC2"/>
<path d="M2636.88 753.599C2636.88 723.893 2660.93 699.838 2690.64 699.838C2720.35 699.838 2744.4 723.893 2744.4 753.599C2744.4 783.305 2720.51 807.36 2690.8 807.36C2661.1 807.36 2636.88 783.305 2636.88 753.599Z" fill="#DAEDE2"/>
<path d="M2583.11 861.121H2367.91V1076.33H2583.11V861.121Z" fill="#EA2E49"/>
<path d="M2367.91 861.121C2486.73 861.121 2583.11 957.503 2583.11 1076.33H2367.91V861.121Z" fill="#DAEDE2"/>
<path d="M2798.32 861.121H2583.11V1076.33H2798.32V861.121Z" fill="#EA2E49"/>
<path d="M2798.32 1076.49C2679.5 1076.49 2583.11 980.106 2583.11 861.121H2798.32V1076.49Z" fill="#DAEDE2"/>
<path d="M3013.53 861.121H2798.32V1076.33H3013.53V861.121Z" fill="#333745"/>
<path d="M2798.32 861.121C2917.14 861.121 3013.53 957.503 3013.53 1076.33H2798.32V861.121Z" fill="#EA2E49"/>
<path d="M2367.91 861.121H1937.34V1291.69H2367.91V861.121Z" fill="#EA2E49"/>
<path d="M3228.89 861.121H3013.69V1076.33H3228.89V861.121Z" fill="#77C4D3"/>
<path d="M2583.11 1076.49H2367.91V1291.69H2583.11V1076.49Z" fill="#77C4D3"/>
<path d="M2583.11 1076.49C2583.11 1195.31 2486.73 1291.69 2367.91 1291.69V1076.49H2583.11Z" fill="#737EC2"/>
<path d="M2367.91 861.121C2367.91 1098.93 2175.14 1291.69 1937.34 1291.69V861.121H2367.91Z" fill="#737EC2"/>
<path d="M3874.67 1076.49H3659.46V1291.69H3874.67V1076.49Z" fill="#737EC2"/>
<path d="M3820.91 1184.01C3820.91 1213.71 3796.85 1237.77 3767.15 1237.77C3737.44 1237.77 3713.39 1213.71 3713.39 1184.01C3713.39 1154.3 3737.44 1130.25 3767.15 1130.25C3796.69 1130.25 3820.91 1154.3 3820.91 1184.01Z" fill="#333745"/>
<path d="M3659.31 1076.49H3444.1V1291.69H3659.31V1076.49Z" fill="#EA2E49"/>
<path d="M3659.47 1291.69C3540.64 1291.69 3444.26 1195.31 3444.26 1076.49H3659.47V1291.69Z" fill="#333745"/>
<path d="M3444.1 1076.49H3228.89V1291.69H3444.1V1076.49Z" fill="#737EC2"/>
<path d="M3766.99 861.121C3766.99 920.533 3718.88 968.805 3659.31 968.805C3599.73 968.805 3551.62 920.694 3551.62 861.121C3551.62 801.709 3599.73 753.438 3659.31 753.438C3718.88 753.438 3766.99 801.709 3766.99 861.121Z" fill="#333745"/>
<path d="M3444.1 861.121H3228.89V1076.33H3444.1V861.121Z" fill="#737EC2"/>
<path d="M3444.1 861.121C3444.1 979.944 3347.71 1076.33 3228.89 1076.33V861.121H3444.1Z" fill="#DAEDE2"/>
<path d="M3444.1 645.916H3228.89V861.122H3444.1V645.916Z" fill="#77C4D3"/>
<path d="M3444.1 753.6C3444.1 813.011 3395.99 861.283 3336.41 861.283C3276.84 861.283 3228.89 813.011 3228.89 753.6C3228.89 694.188 3277 645.916 3336.57 645.916C3396.15 645.916 3444.1 694.027 3444.1 753.6Z" fill="#EA2E49"/>
<path d="M3874.67 430.709H3659.46V645.915H3874.67V430.709Z" fill="#EA2E49"/>
<path d="M3874.67 538.232C3874.67 597.644 3826.56 645.916 3766.99 645.916C3707.41 645.916 3659.3 597.805 3659.3 538.232C3659.3 478.659 3707.41 430.549 3766.99 430.549C3826.56 430.549 3874.67 478.821 3874.67 538.232Z" fill="#737EC2"/>
<path d="M3659.31 430.709H3444.1V645.915H3659.31V430.709Z" fill="#77C4D3"/>
<path d="M3444.1 430.709C3562.92 430.709 3659.31 527.091 3659.31 645.915H3444.1V430.709Z" fill="#737EC2"/>
<path d="M3444.1 430.709H3228.89V645.915H3444.1V430.709Z" fill="#DAEDE2"/>
<path d="M3444.1 645.915C3325.27 645.915 3228.89 549.532 3228.89 430.709H3444.1V645.915Z" fill="#737EC2"/>
<path d="M2798.32 1076.49H2583.11V1291.69H2798.32V1076.49Z" fill="#DAEDE2"/>
<path d="M3013.53 1076.49H2798.32V1291.69H3013.53V1076.49Z" fill="#EA2E49"/>
<path d="M3013.69 1076.49C3013.69 1195.31 2917.31 1291.69 2798.48 1291.69V1076.49H3013.69Z" fill="#333745"/>
<path d="M3228.89 1076.49H3013.69V1291.69H3228.89V1076.49Z" fill="#EA2E49"/>
<path d="M3013.69 1291.69C3013.69 1172.87 3110.07 1076.49 3228.89 1076.49V1291.69H3013.69Z" fill="#DAEDE2"/>
<path d="M3228.89 1076.49C3110.07 1076.49 3013.69 980.106 3013.69 861.283H3228.89V1076.49Z" fill="#DAEDE2"/>
<path d="M5812 646.746H5381.43V1077.32H5812V646.746Z" fill="#DAEDE2"/>
<path d="M5812 861.952C5812 980.775 5715.62 1077.16 5596.79 1077.16C5477.97 1077.16 5381.59 980.775 5381.59 861.952C5381.59 743.128 5477.81 646.746 5596.79 646.746C5715.62 646.746 5812 743.128 5812 861.952Z" fill="#77C4D3"/>
<path d="M4574.21 108.652C4574.21 78.9459 4598.26 54.8906 4627.97 54.8906C4657.67 54.8906 4681.89 78.9459 4681.89 108.652C4681.89 138.357 4657.84 162.413 4628.13 162.413C4598.42 162.413 4574.21 138.357 4574.21 108.652Z" fill="#77C4D3"/>
<path d="M4735.65 108.65C4735.65 49.0773 4783.92 0.966797 4843.33 0.966797C4902.75 0.966797 4951.02 49.0773 4951.02 108.65C4951.02 168.223 4902.91 216.334 4843.33 216.334C4783.76 216.334 4735.65 168.062 4735.65 108.65Z" fill="#EA2E49"/>
<path d="M4951.01 0.966797C5069.84 0.966797 5166.22 97.3492 5166.22 216.172H4951.01V0.966797Z" fill="#737EC2"/>
<path d="M4951.01 216.174H4520.44V646.747H4951.01V216.174Z" fill="#EA2E49"/>
<path d="M4628.12 431.539C4628.12 372.127 4676.23 323.855 4735.81 323.855C4795.38 323.855 4843.49 371.966 4843.49 431.539C4843.49 491.112 4795.38 539.223 4735.81 539.223C4676.23 539.223 4628.12 490.951 4628.12 431.539Z" fill="#DAEDE2"/>
<path d="M5166.22 216.174H4951.01V431.379H5166.22V216.174Z" fill="#EA2E49"/>
<path d="M5166.22 431.542C5047.4 431.542 4951.01 335.159 4951.01 216.336H5166.22V431.542Z" fill="#DAEDE2"/>
<path d="M4089.87 431.539H3874.66V646.745H4089.87V431.539Z" fill="#737EC2"/>
<path d="M3928.43 539.062C3928.43 509.356 3952.48 485.301 3982.19 485.301C4011.89 485.301 4035.95 509.356 4035.95 539.062C4035.95 568.768 4011.89 592.823 3982.19 592.823C3952.48 592.823 3928.43 568.768 3928.43 539.062Z" fill="#77C4D3"/>
<path d="M4305.08 431.539H4089.87V646.745H4305.08V431.539Z" fill="#DAEDE2"/>
<path d="M4089.87 431.539C4208.7 431.539 4305.08 527.921 4305.08 646.745H4089.87V431.539Z" fill="#333745"/>
<path d="M4520.44 431.539H4305.24V646.745H4520.44V431.539Z" fill="#77C4D3"/>
<path d="M4305.24 539.06C4305.24 479.649 4353.35 431.377 4412.92 431.377C4472.49 431.377 4520.6 479.487 4520.6 539.06C4520.6 598.634 4472.33 646.744 4412.76 646.744C4353.19 646.744 4305.24 598.634 4305.24 539.06Z" fill="#EA2E49"/>
<path d="M5166.22 431.539H4951.01V646.745H5166.22V431.539Z" fill="#737EC2"/>
<path d="M4951.01 539.06C4951.01 479.649 4999.13 431.377 5058.7 431.377C5118.27 431.377 5166.38 479.487 5166.38 539.06C5166.38 598.634 5118.11 646.744 5058.54 646.744C4998.96 646.744 4951.01 598.634 4951.01 539.06Z" fill="#333745"/>
<path d="M4089.87 646.746H3874.66V861.952H4089.87V646.746Z" fill="#EA2E49"/>
<path d="M3874.66 754.43C3874.66 694.857 3922.77 646.746 3982.35 646.746C4041.92 646.746 4090.03 694.857 4090.03 754.43C4090.03 814.003 4041.92 862.113 3982.35 862.113C3922.77 862.113 3874.66 813.841 3874.66 754.43Z" fill="#DAEDE2"/>
<path d="M4305.08 646.746H4089.87V861.952H4305.08V646.746Z" fill="#77C4D3"/>
<path d="M4520.44 646.746H4305.24V861.952H4520.44V646.746Z" fill="#DAEDE2"/>
<path d="M4735.65 646.746H4520.44V861.952H4735.65V646.746Z" fill="#737EC2"/>
<path d="M4520.44 754.43C4520.44 695.018 4568.55 646.746 4628.13 646.746C4687.7 646.746 4735.81 694.857 4735.81 754.43C4735.81 814.003 4687.7 862.113 4628.13 862.113C4568.55 862.113 4520.44 813.841 4520.44 754.43Z" fill="#77C4D3"/>
<path d="M4950.86 646.746H4735.65V861.952H4950.86V646.746Z" fill="#333745"/>
<path d="M4951.02 861.952C4832.19 861.952 4735.81 765.569 4735.81 646.746H4951.02V861.952Z" fill="#DAEDE2"/>
<path d="M5166.22 646.746H4951.01V861.952H5166.22V646.746Z" fill="#737EC2"/>
<path d="M4951.01 754.43C4951.01 695.018 4999.13 646.746 5058.7 646.746C5118.27 646.746 5166.38 694.857 5166.38 754.43C5166.38 814.003 5118.27 862.113 5058.7 862.113C4999.13 862.113 4951.01 813.841 4951.01 754.43Z" fill="#EA2E49"/>
<path d="M5004.78 754.429C5004.78 724.723 5028.83 700.668 5058.54 700.668C5088.24 700.668 5112.3 724.723 5112.3 754.429C5112.3 784.135 5088.24 808.19 5058.54 808.19C5028.83 808.19 5004.78 784.135 5004.78 754.429Z" fill="#737EC2"/>
<path d="M4574.21 754.429C4574.21 724.723 4598.26 700.668 4627.97 700.668C4657.67 700.668 4681.73 724.723 4681.73 754.429C4681.73 784.135 4657.84 808.19 4628.13 808.19C4598.42 808.19 4574.21 784.135 4574.21 754.429Z" fill="#DAEDE2"/>
<path d="M4520.44 861.951H4305.24V1077.16H4520.44V861.951Z" fill="#EA2E49"/>
<path d="M4305.24 861.951C4424.06 861.951 4520.44 958.334 4520.44 1077.16H4305.24V861.951Z" fill="#DAEDE2"/>
<path d="M4735.65 861.951H4520.44V1077.16H4735.65V861.951Z" fill="#EA2E49"/>
<path d="M4735.65 1077.32C4616.82 1077.32 4520.44 980.936 4520.44 861.951H4735.65V1077.32Z" fill="#DAEDE2"/>
<path d="M4950.86 861.951H4735.65V1077.16H4950.86V861.951Z" fill="#333745"/>
<path d="M4735.65 861.951C4854.47 861.951 4950.86 958.334 4950.86 1077.16H4735.65V861.951Z" fill="#EA2E49"/>
<path d="M5166.22 861.951H4951.01V1077.16H5166.22V861.951Z" fill="#77C4D3"/>
<path d="M4520.44 1077.32H4305.24V1292.52H4520.44V1077.32Z" fill="#77C4D3"/>
<path d="M4520.44 1077.32C4520.44 1196.14 4424.06 1292.52 4305.24 1292.52V1077.32H4520.44Z" fill="#737EC2"/>
<path d="M4305.24 861.951H3874.66V1292.52H4305.24V861.951Z" fill="#EA2E49"/>
<path d="M4305.24 861.951C4305.24 1099.76 4112.47 1292.52 3874.66 1292.52V861.951H4305.24Z" fill="#737EC2"/>
<path d="M5812 1077.32H5596.79V1292.52H5812V1077.32Z" fill="#737EC2"/>
<path d="M5758.24 1184.84C5758.24 1214.54 5734.18 1238.6 5704.47 1238.6C5674.77 1238.6 5650.71 1214.54 5650.71 1184.84C5650.71 1155.13 5674.77 1131.08 5704.47 1131.08C5734.02 1131.08 5758.24 1155.13 5758.24 1184.84Z" fill="#333745"/>
<path d="M5596.63 1077.32H5381.43V1292.52H5596.63V1077.32Z" fill="#EA2E49"/>
<path d="M5596.79 1292.52C5477.97 1292.52 5381.59 1196.14 5381.59 1077.32H5596.79V1292.52Z" fill="#333745"/>
<path d="M5381.42 1077.32H5166.22V1292.52H5381.42V1077.32Z" fill="#737EC2"/>
<path d="M5704.32 861.951C5704.32 921.363 5656.21 969.635 5596.63 969.635C5537.06 969.635 5488.95 921.524 5488.95 861.951C5488.95 802.539 5537.06 754.268 5596.63 754.268C5656.21 754.268 5704.32 802.539 5704.32 861.951Z" fill="#333745"/>
<path d="M5381.42 861.951H5166.22V1077.16H5381.42V861.951Z" fill="#737EC2"/>
<path d="M5381.42 861.951C5381.42 980.774 5285.04 1077.16 5166.22 1077.16V861.951H5381.42Z" fill="#DAEDE2"/>
<path d="M5381.42 646.746H5166.22V861.952H5381.42V646.746Z" fill="#77C4D3"/>
<path d="M5381.42 754.43C5381.42 813.841 5333.31 862.113 5273.74 862.113C5214.17 862.113 5166.22 813.841 5166.22 754.43C5166.22 695.018 5214.33 646.746 5273.9 646.746C5333.48 646.746 5381.42 694.857 5381.42 754.43Z" fill="#EA2E49"/>
<path d="M5812 539.06C5812 598.472 5763.89 646.744 5704.32 646.744C5644.74 646.744 5596.63 598.634 5596.63 539.06C5596.63 479.487 5644.74 431.377 5704.32 431.377C5763.89 431.377 5812 479.649 5812 539.06Z" fill="#737EC2"/>
<path d="M5596.63 431.539H5381.43V646.745H5596.63V431.539Z" fill="#77C4D3"/>
<path d="M5381.43 431.539C5500.25 431.539 5596.63 527.921 5596.63 646.745H5381.43V431.539Z" fill="#737EC2"/>
<path d="M5381.42 431.539H5166.22V646.745H5381.42V431.539Z" fill="#DAEDE2"/>
<path d="M5381.42 646.745C5262.6 646.745 5166.22 550.362 5166.22 431.539H5381.42V646.745Z" fill="#737EC2"/>
<path d="M5381.42 216.174H5166.22V431.379H5381.42V216.174Z" fill="#DAEDE2"/>
<path d="M5381.42 431.541C5262.6 431.541 5166.22 335.158 5166.22 216.174H5381.42V431.541Z" fill="#EA2E49"/>
<path d="M4950.86 1077.32H4735.65V1292.52H4950.86V1077.32Z" fill="#EA2E49"/>
<path d="M4951.02 1077.32C4951.02 1196.14 4854.63 1292.52 4735.81 1292.52V1077.32H4951.02Z" fill="#333745"/>
<path d="M5166.22 1077.32H4951.01V1292.52H5166.22V1077.32Z" fill="#EA2E49"/>
<path d="M4951.01 1292.52C4951.01 1173.7 5047.4 1077.32 5166.22 1077.32V1292.52H4951.01Z" fill="#DAEDE2"/>
<path d="M5166.22 1077.32C5047.4 1077.32 4951.01 980.936 4951.01 862.113H5166.22V1077.32Z" fill="#DAEDE2"/>
<path d="M0.00088501 431.539C0.00088501 312.715 96.3834 216.333 215.207 216.333C334.03 216.333 430.412 312.715 430.412 431.539C430.412 550.362 334.191 646.744 215.207 646.744C96.3834 646.744 0.00088501 550.362 0.00088501 431.539Z" fill="#77C4D3"/>
<path d="M1722.13 1292.52H1937.34V1077.32H1722.13V1292.52Z" fill="#737EC2"/>
<path d="M1883.57 1184.84C1883.57 1214.54 1859.52 1238.6 1829.81 1238.6C1800.11 1238.6 1775.89 1214.54 1775.89 1184.84C1775.89 1155.13 1799.95 1131.08 1829.65 1131.08C1859.36 1131.08 1883.57 1155.13 1883.57 1184.84Z" fill="#333745"/>
<path d="M1506.92 1292.52H1722.13V1077.32H1506.92V1292.52Z" fill="#EA2E49"/>
<path d="M1722.13 1292.52C1603.14 1292.52 1506.76 1196.14 1506.76 1077.32H1722.13V1292.52Z" fill="#333745"/>
<path d="M1291.56 1292.52H1506.76V1077.32H1291.56V1292.52Z" fill="#737EC2"/>
<path d="M1076.35 1292.52H1291.56V1077.32H1076.35V1292.52Z" fill="#DAEDE2"/>
<path d="M1237.79 1184.84C1237.79 1214.54 1213.74 1238.6 1184.03 1238.6C1154.33 1238.6 1130.11 1214.54 1130.11 1184.84C1130.11 1155.13 1154.16 1131.08 1183.87 1131.08C1213.58 1131.08 1237.79 1155.13 1237.79 1184.84Z" fill="#77C4D3"/>
<path d="M861.144 1292.52H1076.35V1077.32H861.144V1292.52Z" fill="#737EC2"/>
<path d="M1076.35 1184.84C1076.35 1244.41 1028.08 1292.52 968.666 1292.52C909.254 1292.52 860.982 1244.41 860.982 1184.84C860.982 1125.27 909.093 1077.16 968.666 1077.16C1028.24 1077.16 1076.35 1125.43 1076.35 1184.84Z" fill="#EA2E49"/>
<path d="M645.78 1292.52H860.985V1077.32H645.78V1292.52Z" fill="#EA2E49"/>
<path d="M860.985 1292.52C742.162 1292.52 645.78 1196.14 645.78 1077.32H860.985V1292.52Z" fill="#737EC2"/>
<path d="M1722.13 1077.32H1937.34V862.113H1722.13V1077.32Z" fill="#77C4D3"/>
<path d="M1883.57 969.635C1883.57 999.341 1859.52 1023.4 1829.81 1023.4C1800.11 1023.4 1775.89 999.341 1775.89 969.635C1775.89 939.93 1799.95 915.874 1829.65 915.874C1859.36 915.874 1883.57 939.93 1883.57 969.635Z" fill="#DAEDE2"/>
<path d="M1506.92 1077.32H1722.13V862.113H1506.92V1077.32Z" fill="#DAEDE2"/>
<path d="M1506.76 861.949C1625.58 861.949 1721.97 958.331 1721.97 1077.15H1506.76V861.949Z" fill="#EA2E49"/>
<path d="M1291.56 1077.32H1506.76V862.113H1291.56V1077.32Z" fill="#737EC2"/>
<path d="M1506.76 1077.32C1387.94 1077.32 1291.56 980.936 1291.56 862.113H1506.76V1077.32Z" fill="#EA2E49"/>
<path d="M860.986 1077.32H1291.56V646.746H860.986V1077.32Z" fill="#EA2E49"/>
<path d="M1183.88 861.951C1183.88 921.363 1135.77 969.635 1076.19 969.635C1016.62 969.635 968.509 921.524 968.509 861.951C968.509 802.378 1016.62 754.268 1076.19 754.268C1135.77 754.268 1183.88 802.54 1183.88 861.951Z" fill="#DAEDE2"/>
<path d="M645.78 1077.32H860.985V862.113H645.78V1077.32Z" fill="#EA2E49"/>
<path d="M645.78 861.949C764.603 861.949 860.985 958.331 860.985 1077.15H645.78V861.949Z" fill="#DAEDE2"/>
<path d="M1722.13 861.949H1937.34V646.744H1722.13V861.949Z" fill="#737EC2"/>
<path d="M1883.57 754.428C1883.57 784.134 1859.52 808.189 1829.81 808.189C1800.11 808.189 1776.05 784.134 1776.05 754.428C1776.05 724.723 1800.11 700.667 1829.81 700.667C1859.52 700.667 1883.57 724.723 1883.57 754.428Z" fill="#77C4D3"/>
<path d="M1506.92 861.949H1722.13V646.744H1506.92V861.949Z" fill="#DAEDE2"/>
<path d="M1722.13 861.949C1603.3 861.949 1506.92 765.567 1506.92 646.744H1722.13V861.949Z" fill="#333745"/>
<path d="M1291.56 861.949H1506.76V646.744H1291.56V861.949Z" fill="#77C4D3"/>
<path d="M1506.76 754.428C1506.76 813.839 1458.65 862.111 1399.08 862.111C1339.51 862.111 1291.4 814.001 1291.4 754.428C1291.4 694.855 1339.67 646.744 1399.24 646.744C1458.81 646.744 1506.76 694.855 1506.76 754.428Z" fill="#EA2E49"/>
<path d="M645.78 861.949H860.985V646.744H645.78V861.949Z" fill="#737EC2"/>
<path d="M860.985 754.428C860.985 813.839 812.875 862.111 753.302 862.111C693.729 862.111 645.618 814.001 645.618 754.428C645.618 694.855 693.89 646.744 753.463 646.744C813.036 646.744 860.985 694.855 860.985 754.428Z" fill="#333745"/>
<path d="M1722.13 646.744H1937.34V431.539H1722.13V646.744Z" fill="#EA2E49"/>
<path d="M1937.34 539.061C1937.34 598.634 1889.23 646.744 1829.65 646.744C1770.08 646.744 1721.97 598.634 1721.97 539.061C1721.97 479.488 1770.08 431.377 1829.65 431.377C1889.23 431.377 1937.34 479.649 1937.34 539.061Z" fill="#DAEDE2"/>
<path d="M1506.76 431.539C1625.58 431.539 1721.97 527.921 1721.97 646.744H1506.76V431.539Z" fill="#737EC2"/>
<path d="M1291.56 646.744H1506.76V431.539H1291.56V646.744Z" fill="#DAEDE2"/>
<path d="M1076.35 646.744H1291.56V431.539H1076.35V646.744Z" fill="#737EC2"/>
<path d="M1291.56 539.061C1291.56 598.472 1243.45 646.744 1183.87 646.744C1124.3 646.744 1076.19 598.634 1076.19 539.061C1076.19 479.488 1124.3 431.377 1183.87 431.377C1243.45 431.377 1291.56 479.649 1291.56 539.061Z" fill="#77C4D3"/>
<path d="M861.144 646.744H1076.35V431.539H861.144V646.744Z" fill="#333745"/>
<path d="M860.984 431.539C979.807 431.539 1076.19 527.921 1076.19 646.744H860.984V431.539Z" fill="#DAEDE2"/>
<path d="M645.78 646.744H860.985V431.539H645.78V646.744Z" fill="#737EC2"/>
<path d="M860.985 539.061C860.985 598.472 812.875 646.744 753.302 646.744C693.729 646.744 645.618 598.634 645.618 539.061C645.618 479.488 693.729 431.377 753.302 431.377C812.875 431.377 860.985 479.649 860.985 539.061Z" fill="#EA2E49"/>
<path d="M807.224 539.061C807.224 568.767 783.169 592.822 753.463 592.822C723.757 592.822 699.702 568.767 699.702 539.061C699.702 509.355 723.757 485.3 753.463 485.3C783.169 485.3 807.224 509.355 807.224 539.061Z" fill="#737EC2"/>
<path d="M1237.79 539.061C1237.79 568.767 1213.74 592.822 1184.03 592.822C1154.33 592.822 1130.27 568.767 1130.27 539.061C1130.27 509.355 1154.16 485.3 1183.87 485.3C1213.58 485.3 1237.79 509.355 1237.79 539.061Z" fill="#DAEDE2"/>
<path d="M1076.35 216.172C1195.18 216.172 1291.56 312.554 1291.56 431.539H1076.35V216.172Z" fill="#DAEDE2"/>
<path d="M861.144 431.539H1076.35V216.333H861.144V431.539Z" fill="#333745"/>
<path d="M1076.35 431.539C957.526 431.539 861.144 335.157 861.144 216.333H1076.35V431.539Z" fill="#EA2E49"/>
<path d="M107.683 431.541C107.683 372.129 155.794 323.858 215.367 323.858C274.94 323.858 323.05 371.968 323.05 431.541C323.05 490.953 274.94 539.225 215.367 539.225C155.794 539.225 107.683 490.953 107.683 431.541Z" fill="#333745"/>
<path d="M430.575 646.744H645.781V431.539H430.575V646.744Z" fill="#77C4D3"/>
<path d="M430.575 539.061C430.575 479.649 478.686 431.377 538.259 431.377C597.832 431.377 645.781 479.649 645.781 539.061C645.781 598.472 597.67 646.744 538.097 646.744C478.524 646.744 430.575 598.634 430.575 539.061Z" fill="#EA2E49"/>
<path d="M0.00227356 861.949H215.208V646.744H0.00227356V861.949Z" fill="#EA2E49"/>
<path d="M0.000915527 754.428C0.000915527 695.016 48.1113 646.744 107.684 646.744C167.257 646.744 215.368 694.855 215.368 754.428C215.368 814.001 167.257 862.111 107.684 862.111C48.1113 862.111 0.000915527 813.839 0.000915527 754.428Z" fill="#737EC2"/>
<path d="M215.366 861.949H430.572V646.744H215.366V861.949Z" fill="#77C4D3"/>
<path d="M430.575 861.949H645.781V646.744H430.575V861.949Z" fill="#DAEDE2"/>
<path d="M430.575 1077.32H645.781V862.113H430.575V1077.32Z" fill="#DAEDE2"/>
<path d="M430.575 861.951C549.398 861.951 645.781 958.334 645.781 1077.32H430.575V861.951Z" fill="#EA2E49"/>
<path d="M0.00222778 1292.52H430.252V862.274H0.00222778V1292.52Z" fill="#77C4D3"/>
<path d="M0.00222778 1292.52C0.00222778 1054.88 192.606 862.274 430.252 862.274V1292.52H0.00222778Z" fill="#EA2E49"/>
<path d="M430.575 1292.52H645.781V1077.32H430.575V1292.52Z" fill="#77C4D3"/>
<path d="M645.781 1077.32C645.781 1196.14 549.398 1292.52 430.575 1292.52V1077.32H645.781Z" fill="#737EC2"/>
<path d="M1076.35 0.968216C1195.18 0.968216 1291.56 97.3506 1291.56 216.174H1076.35V0.968216Z" fill="#333745"/>
<path d="M860.984 216.174C860.984 97.3506 957.366 0.968216 1076.19 0.968216V216.174H860.984Z" fill="#333745"/>
<path d="M645.78 216.171C764.603 216.171 860.985 312.554 860.985 431.377H645.78V216.171Z" fill="#DAEDE2"/>
<path d="M1506.76 646.744C1387.94 646.744 1291.56 550.362 1291.56 431.539H1506.76V646.744Z" fill="#737EC2"/>
<path d="M430.575 108.65C430.575 49.2388 478.686 0.966858 538.259 0.966858C597.832 0.966858 645.781 49.0774 645.781 108.65C645.781 168.062 597.67 216.334 538.097 216.334C478.524 216.334 430.575 168.062 430.575 108.65Z" fill="#333745"/>
<path d="M484.334 108.651C484.334 78.9453 508.389 54.89 538.095 54.89C567.801 54.89 591.856 78.9453 591.856 108.651C591.856 138.357 567.801 162.412 538.095 162.412C508.389 162.412 484.334 138.357 484.334 108.651Z" fill="#737EC2"/>
</svg>
